<?xml version="1.0" encoding="utf-8"?>
<!-- Generator: Adobe Illustrator 16.0.3, SVG Export Plug-In . SVG Version: 6.00 Build 0)  -->
<!DOCTYPE svg PUBLIC "-//W3C//DTD SVG 1.1//EN" "http://www.w3.org/Graphics/SVG/1.1/DTD/svg11.dtd">
<svg version="1.1"
	 id="Insigne_Romanum_coronatum"
	 xmlns="http://www.w3.org/2000/svg" xmlns:xlink="http://www.w3.org/1999/xlink" x="0px" y="0px" width="310px" height="510px"
	 viewBox="50.198 2.975 310 510" enable-background="new 50.198 2.975 310 510" xml:space="preserve">
<rect x="100.391" y="137.318" fill="#645208" width="209.25" height="11.25"/>
<path fill="#BC2E2E" stroke="#4B1212" stroke-width="2" stroke-miterlimit="10" d="M354.639,263.813
	c0,187.837-149.556,245.799-149.556,245.799S55.758,451.653,55.758,263.813V147.717h298.881V263.813z"/>
<path transform="translate(1 142.63)" fill="#FFDB43" stroke="#765A00" stroke-width="1" d="M82.39,42.818h18.148v1.639
	c-1.345,0.374-2.288,0.804-2.811,1.327c-0.523,0.523-0.781,1.336-0.781,2.419v19.942h20.021c1.046,0,1.839-0.257,2.381-0.78
	s0.952-1.465,1.288-2.81h1.678v18.188h-1.678c-0.336-1.345-0.746-2.287-1.288-2.811c-0.542-0.523-1.334-0.78-2.381-0.78H96.947
	v19.981c0,1.046,0.258,1.86,0.781,2.42c0.523,0.561,1.465,1.03,2.811,1.366v1.6H82.39v-1.678c1.345-0.299,2.248-0.728,2.771-1.288
	c0.523-0.56,0.781-1.374,0.781-2.42V79.152H65.96c-1.046,0-1.859,0.257-2.419,0.78c-0.561,0.523-0.991,1.465-1.327,2.811h-1.639
	V64.556h1.678c0.299,1.345,0.728,2.287,1.288,2.81s1.374,0.78,2.419,0.78h19.982V48.203c0-1.046-0.258-1.839-0.781-2.38
	c-0.523-0.542-1.426-0.991-2.771-1.327V42.818L82.39,42.818z M153.579,85.884c-0.29,1.363-0.674,2.269-1.152,2.718
	s-1.095,0.674-1.849,0.674c-0.667,0-1.812-0.362-3.436-1.087c-3.508-1.537-6.827-2.305-9.958-2.305
	c-5.016,0-9.147,1.529-12.395,4.588c-3.247,3.059-4.871,6.705-4.871,10.938c0,2.436,0.551,4.668,1.653,6.698
	c1.102,2.029,2.718,3.885,4.849,5.566c2.131,1.682,5.719,3.936,10.764,6.763c5.044,2.826,8.132,4.675,9.263,5.545
	c1.682,1.275,2.921,2.652,3.719,4.131c0.797,1.479,1.195,2.942,1.195,4.393c0,2.609-1.051,4.871-3.153,6.785
	c-2.102,1.914-4.965,2.87-8.589,2.87c-3.131,0-6.009-0.696-8.632-2.087c-2.625-1.392-4.574-3.138-5.85-5.24s-2.291-5.27-3.044-9.502
	h-1.609v20.222h1.609c0.203-1.362,0.514-2.261,0.935-2.696c0.42-0.435,0.993-0.652,1.718-0.652c0.753,0,2.543,0.457,5.371,1.37
	c2.827,0.913,4.689,1.442,5.588,1.588c1.508,0.26,3.116,0.391,4.827,0.391c5.451,0,9.908-1.616,13.374-4.849
	c3.464-3.232,5.197-7.081,5.197-11.546c0-2.348-0.543-4.595-1.631-6.741c-1.087-2.145-2.639-4.007-4.654-5.587
	c-2.014-1.58-5.776-3.849-11.285-6.806c-6.755-3.624-11.032-6.523-12.83-8.698c-1.246-1.479-1.87-3.117-1.87-4.915
	c0-2.348,0.986-4.443,2.958-6.284c1.971-1.841,4.465-2.762,7.48-2.762c2.667,0,5.248,0.681,7.741,2.044s4.414,3.204,5.763,5.523
	c1.348,2.32,2.283,5.436,2.805,9.35h1.609V85.884L153.579,85.884z M181.759,153.337c1.884,0.406,3.653,0.71,5.306,0.914
	c1.653,0.203,3.189,0.305,4.61,0.305c5.799,0,10.286-1.508,13.46-4.523c3.175-3.015,4.762-6.929,4.762-11.742
	c0-3.537-1.044-6.596-3.131-9.176c-2.087-2.581-4.653-4.415-7.698-5.502s-7.205-1.63-12.481-1.63h-21.615v1.609h2.218
	c2.232,0,3.915,0.638,5.045,1.914c0.782,0.899,1.174,3.204,1.174,6.915v38.097c0,3.363-0.29,5.495-0.87,6.393
	c-1.072,1.625-2.855,2.436-5.349,2.436h-2.218v1.608h25.268v-1.608h-2.262c-2.232,0-3.899-0.639-5.001-1.913
	c-0.813-0.899-1.218-3.204-1.218-6.916L181.759,153.337L181.759,153.337z M181.76,126.331c2.319-0.551,4.218-0.826,5.697-0.826
	c2.436,0,4.61,0.543,6.523,1.63c1.913,1.087,3.393,2.726,4.436,4.915c1.044,2.189,1.565,4.559,1.565,7.11
	c0,3.711-1.094,6.734-3.283,9.068c-2.189,2.334-4.791,3.501-7.807,3.501c-0.841,0-1.855-0.073-3.043-0.218
	c-1.189-0.146-2.552-0.362-4.088-0.652V126.331z M237.372,211.912c6.437-1.941,11.663-5.638,15.678-11.089
	c4.016-5.451,6.023-11.785,6.023-19.003c0-8.902-2.82-16.273-8.459-22.115c-5.639-5.843-12.314-8.763-20.026-8.763
	c-8.118,0-15.034,2.914-20.745,8.741c-5.711,5.828-8.567,13.149-8.567,21.963c0,5.594,0.979,10.444,2.936,14.546
	c1.957,4.103,4.704,7.56,8.241,10.373c2.436,1.884,5.741,3.668,9.917,5.35c2.956,2.928,6.472,5.689,10.545,8.285
	c4.074,2.594,8.386,4.623,12.938,6.088c4.552,1.465,8.829,2.268,12.83,2.414v-1.392c-4.378-0.349-8.285-1.726-11.72-4.132
	C243.526,220.77,240.33,217.016,237.372,211.912L237.372,211.912z M230.067,154.289c3.42,0,6.501,0.876,9.241,2.631
	c2.74,1.754,4.936,4.487,6.589,8.198c2.146,4.813,3.218,10.743,3.218,17.788c0,9.163-1.957,16.091-5.871,20.788
	c-3.334,3.973-7.726,5.959-13.177,5.959c-5.248,0-9.467-1.986-12.655-5.959c-4.117-5.161-6.176-12.51-6.176-22.049
	c0-9.741,2.029-16.975,6.088-21.702C220.543,156.174,224.79,154.29,230.067,154.289L230.067,154.289z M318.683,250.864
	c-3.219-0.349-5.828-1.16-7.828-2.436c-2.001-1.276-4.392-3.855-7.175-7.742l-12.177-16.917c4.958-1.102,8.618-2.985,10.981-5.653
	c2.362-2.667,3.544-5.814,3.544-9.438c0-3.391-1.037-6.313-3.11-8.763s-4.595-4.131-7.567-5.045
	c-2.971-0.913-7.588-1.37-13.851-1.37h-21.484v1.61h2.218c2.232,0,3.914,0.637,5.045,1.913c0.812,0.899,1.217,3.204,1.217,6.914
	v38.096c0,3.365-0.304,5.495-0.913,6.394c-1.072,1.623-2.856,2.435-5.349,2.435h-2.218v1.61h25.268v-1.61h-2.306
	c-2.203,0-3.855-0.637-4.957-1.913c-0.813-0.899-1.218-3.204-1.218-6.916V224.9c0.464,0.029,0.914,0.053,1.349,0.066
	c0.434,0.015,0.84,0.022,1.217,0.022c0.929,0,2.131-0.029,3.609-0.088l19.962,27.573h15.743V250.864z M276.802,197.635
	c2.87-0.551,5.146-0.828,6.828-0.828c3.798,0,6.85,1.153,9.154,3.458c2.305,2.306,3.457,5.298,3.457,8.981
	c0,3.769-1.427,6.87-4.283,9.306c-2.855,2.436-7.096,3.653-12.72,3.653c-0.262,0-0.595-0.007-1-0.023
	c-0.407-0.015-0.885-0.021-1.435-0.022L276.802,197.635z"/>
<g transform="translate(-466.07 -182.52)">
	<g transform="matrix(1.0148 0 0 1.0529 -226.01 -110.37)">
		<g transform="translate(9.1349 .44794)">
			
				<linearGradient id="SVGID_1_" gradientUnits="userSpaceOnUse" x1="765.0966" y1="373.7022" x2="988.2631" y2="373.7022" gradientTransform="matrix(1 0 0 1 -6.103516e-005 0)">
				<stop  offset="0" style="stop-color:#BCA33E"/>
				<stop  offset="0.2514" style="stop-color:#E6D289"/>
				<stop  offset="0.5" style="stop-color:#C5A941"/>
				<stop  offset="0.7757" style="stop-color:#B19123"/>
				<stop  offset="0.8255" style="stop-color:#B5982D"/>
				<stop  offset="0.9142" style="stop-color:#BAA03A"/>
				<stop  offset="1" style="stop-color:#BCA33E"/>
			</linearGradient>
			<path fill="url(#SVGID_1_)" d="M776.622,409.55c74.406-5.981,123.738-5.624,196.602,0c2.757-10.583,8.986-34.312,11.785-44.842
				c-15.054,1.464-15.485,1.227-19.112-10.177c-5.512,7.842-21.008,12.175-23.735-7.377c-8.092,12.785-23.153,14.922-29.186,0.321
				c-12.061,11.396-36.327,13.414-35.921-9.621c-1.56,0-2.931,0-3.528,0c0.043,14.666-16.032,26.894-36.884,10.584
				c-6.124,12.036-18.721,12.036-28.224,1.283c-7.462,12.772-13.559,15.383-24.696,5.773c-4.137,11.272-6.046,11.688-18.625,8.538
				C767.545,373.702,774.336,402.115,776.622,409.55z"/>
			
				<linearGradient id="SVGID_2_" gradientUnits="userSpaceOnUse" x1="764.7756" y1="357.0712" x2="983.9304" y2="357.0712" gradientTransform="matrix(1 0 0 1 -6.103516e-005 0)">
				<stop  offset="0" style="stop-color:#A3861A"/>
				<stop  offset="0.2514" style="stop-color:#C5A941"/>
				<stop  offset="0.5" style="stop-color:#A3861A"/>
			</linearGradient>
			<path fill="url(#SVGID_2_)" d="M874.879,352.52c-5.652,13.653-28.009,14.543-36.487,4.379
				c-2.793,6.068-17.297,13.637-28.522,1.715c-2.078,9.873-19.169,13.257-23.711,6.33c-3.68,8.618-14.951,10.132-16.723,9.1
				c-0.608-0.206-2.906-1.436-3.246-2.733c-0.221-0.84-1.054-4.047-1.415-5.447c1.377,0.878,3.65,2.049,4.758,2.425
				c9.62,1.89,11.468-1.404,13.022-17.873c2.044,5.36,4.997,11.774,8.412,12.846c8.141,2.554,15.809-1.542,14.251-17.045
				c1.212-0.233,2.224-0.428,2.995-0.576c5.793,16.445,16.024,16.525,21.789,12.794c5.641-3.65,4.674-7.755,6.14-15.62
				c2.968,5.194,3.427,9.471,7.138,12.594c5.808,4.887,20.312,6.134,25.592-3.236c2.284-4.053,1.496-10.012,1.467-12.084
				c2.861-0.365,6.371-0.365,9.111,0c-1.077,7.653,0.366,13.036,5.62,16.706c4.758,3.324,15.382,3.413,21.495-1.427
				c3.259-2.58,4.971-8.011,7.082-12.553c1.033,12.406,3.391,14.218,6.587,15.901c7.564,3.984,15.971,1.848,21.343-13.075
				c1.188,0.229,2.147,0.413,2.994,0.576c-0.989,10.847,2.402,16.93,8.343,17.623c7.772,0.907,10.081-2.654,14.319-13.425
				c1.49,15.133,3.338,19.763,12.2,18.49c1.199-0.407,0.569,0.984,0.579,2.511c0.007,0.939,1.599,1.993,0.031,2.525
				c-3.006,1.491-13.353-1.803-16.208-8.894c-3.15,4.865-20.518,6.289-24.019-5.713c-4.352,9.332-24.953,6.215-28.421-1.716
				C903.686,366.262,880.775,366.351,874.879,352.52z"/>
			<path fill="#BA9A2E" d="M858.089,393.074c-10.854,0-31.924,1.008-51.652,2.944c-19.793,1.944-29.811,1.755-29.811,1.755v11.778
				H973.23v-11.779c0,0-11.072,0.189-30.706-1.754c-19.574-1.937-41.144-2.944-51.666-2.944h-32.767H858.089z"/>
			<path fill="#BA9A2E" d="M772.193,369.031l0.005,15.626c0,0,18.081-5.354,37.625-6.879c19.609-1.529,38.381-3.437,49.025-3.437
				h32.767c10.304,0,31.883,1.908,51.33,3.437c19.386,1.525,33.821,6.497,33.821,6.497l1.131-15.244H772.193z"/>
			<path fill="none" stroke="#554400" stroke-width="0.825" d="M776.622,409.55c74.406-5.981,123.738-5.624,196.602,0
				c2.757-10.583,8.986-34.312,11.785-44.842c-6.22,8.36-57.493,3.666-112.732,4.323c-52.958,0.63-100.546,3.395-107.968-4.999
				C766.756,373.702,774.336,402.115,776.622,409.55z"/>
		</g>
		<g transform="matrix(.5 0 0 .5 -603.43 -44.632)">
			<path fill="#D0B54E" d="M2974.819,779.52c-11.129,36.694-59.213,33.37-73.742,13.171c-10.599,21.623-44.596,23.76-58.074,1.375
				c-6.6,30.576-40.843,25.59-48.244,14.511c-7.503,27.7-46.92,26.513-53.978-12.464c2.127-0.436,4.924-1.234,8.718-1.785
				c1.912,9.419,8.564,26.633,24.709,23.597c12.759-2.4,12.362-13.038,16.032-36.906c5.145,11.924,9.994,23.548,16.824,25.692
				c16.281,5.109,31.617-3.083,28.501-34.089c2.424-0.466,4.449-0.856,5.99-1.153c11.585,32.89,32.047,33.05,43.578,25.588
				c11.282-7.3,9.348-15.51,12.28-31.241c5.937,10.388,6.854,18.942,14.276,25.189c11.615,9.774,40.623,12.267,51.184-6.472
				c4.567-8.105,2.993-20.025,2.934-24.169c5.721-0.731,12.727-0.793,18.206-0.062c-1.769,15.19,0.835,26.017,11.256,33.473
				c7.299,5.223,25.589,6.211,35.325,1.79c11.268-5.115,13.485-10.576,21.812-29.812c3.129,24.696,4.468,26.754,14.176,32.395
				c7.183,4.174,17.941,4.464,27.351-2.678c5.206-3.952,9.267-12.086,14.333-24.063c2.375,0.457,4.295,0.826,5.99,1.153
				c-2.798,18.839,3.73,33.917,16.702,35.308c15.561,1.669,19.67-4.597,28.623-26.911c2.872,29.794,5.45,37.427,21.345,37.405
				c8.995-0.013,18.726-14.615,19.379-24.034c2.641,0.541,5.412,1.108,8.718,1.785c-7.277,38.739-46.94,40.401-53.977,12.464
				c-7.991,11.198-41.002,15.947-48.244-14.511c-14.561,23.215-47.942,19.654-58.074-1.375
				C3037.182,810.396,2988.281,819.3,2974.819,779.52z"/>
			<path fill="#E6D289" d="M2974.703,759.47l8.691,0.817l0.484,18.573l3.069,5.977l5.814,6.945l7.267,4.683l9.207,1.616h9.045
				l10.982-2.261l9.367-5.007l7.914-12.921l5.168-13.244l1.777,13.89l3.23,11.628l4.845,4.845l8.56,4.2l8.722,2.26l9.045-2.906
				l8.075-5.008l5.976-8.883l5.975-13.245l5.815,1.454l-0.97,8.883l2.101,9.853l2.746,8.722l7.429,5.975l8.722,1.938l7.43-0.484
				l7.429-5.33l10.014-20.996l2.26,16.797l3.392,10.982l3.875,6.461l9.692,3.068l5.653-0.323l6.138-4.522l5.168-5.653l2.907-5.491
				l2.424-8.399l3.39,0.484c0,0-0.742,7.307-1.937,10.176c-1.449,3.473-4.417,7.705-7.108,10.337
				c-2.402,2.349-6.155,5.635-9.366,6.621c-2.919,0.897-7.185,0.772-10.176,0.162c-3.274-0.668-7.663-2.714-10.175-5.008
				c-2.265-2.067-4.099-5.914-5.331-8.721c-1.416-3.23-3.23-11.305-3.23-11.305s-3.48,7.023-5.813,9.367
				c-2.058,2.068-5.488,4.192-8.238,5.169c-2.621,0.931-6.424,1.199-9.205,1.13c-2.558-0.062-6.074-0.39-8.4-1.453
				c-2.848-1.304-6.065-4.218-8.075-6.622c-2.171-2.596-4.184-6.731-5.492-9.853c-1.266-3.026-3.069-10.498-3.069-10.498
				s-4.872,7.933-7.59,10.821c-2.291,2.437-5.728,5.456-8.721,6.945c-3.672,1.827-9.151,3.139-13.242,3.392
				c-2.292,0.142-5.403-0.277-7.593-0.968c-2.872-0.909-6.377-3.011-8.882-4.685c-2.461-1.644-5.789-3.95-7.591-6.299
				c-1.979-2.581-4.523-9.852-4.523-9.852s-4.62,5.668-6.944,7.752c-2.664,2.388-6.458,5.414-9.691,6.945
				c-3.537,1.675-9.691,3.495-13.567,4.037c-1.662,0.233-7.529,0.539-14.129-0.455c-5.978-0.9-11.76-3.688-13.328-4.713
				c-4.346-2.841-8.71-8.657-11.145-13.244c-1.747-3.292-2.835-8.451-4.114-11.951c-0.767-2.098-2.491-10.541-2.298-10.551
				c0.194-0.01-1.241,7.855-2.009,9.953c-1.28,3.5-2.365,9.238-4.113,12.53c-2.436,4.587-6.798,10.402-11.145,13.243
				c-1.568,1.026-7.351,3.813-13.329,4.714c-6.599,0.994-12.466,0.687-14.128,0.455c-3.876-0.543-10.03-2.362-13.567-4.037
				c-3.232-1.532-7.029-4.558-9.69-6.945c-2.325-2.085-6.944-7.753-6.944-7.753s-2.544,7.272-4.524,9.853
				c-1.801,2.348-5.13,4.655-7.591,6.299c-2.505,1.674-6.01,3.776-8.883,4.685c-2.188,0.691-5.3,1.11-7.591,0.968
				c-4.094-0.253-9.571-1.566-13.243-3.392c-2.996-1.49-6.431-4.509-8.721-6.945c-2.718-2.888-7.592-10.821-7.592-10.821
				s-1.801,7.471-3.068,10.498c-1.307,3.122-3.322,7.257-5.492,9.853c-2.009,2.404-5.226,5.318-8.075,6.622
				c-2.326,1.063-5.842,1.39-8.399,1.453c-2.782,0.07-6.584-0.198-9.206-1.13c-2.75-0.977-6.179-3.101-8.238-5.169
				c-2.333-2.344-5.813-9.367-5.813-9.367s-1.813,8.075-3.23,11.305c-1.233,2.807-3.066,6.654-5.329,8.72
				c-2.515,2.295-6.903,4.341-10.177,5.009c-2.99,0.609-7.256,0.735-10.175-0.162c-3.212-0.986-6.965-4.273-9.367-6.621
				c-2.691-2.632-5.658-6.864-7.108-10.337c-1.195-2.869-1.937-10.176-1.937-10.176l3.391-0.484l2.423,8.398l2.907,5.492
				l5.168,5.653l6.138,4.522l5.653,0.323l9.691-3.068l3.875-6.461l3.392-10.983l2.26-16.798l10.014,20.997l7.429,5.329l7.43,0.485
				l8.722-1.938l7.428-5.976l2.746-8.721l2.1-9.853l-0.969-8.883l5.814-1.453l5.976,13.244l5.975,8.883l8.075,5.007l9.045,2.907
				l8.721-2.261l8.561-4.199l4.844-4.846l3.23-11.628l1.777-13.889l5.168,13.244l7.914,12.921l9.368,5.007l10.982,2.261h9.044
				l9.208-1.616l7.267-4.684l5.813-6.944l3.069-5.977l0.485-18.573L2974.703,759.47z"/>
			<path fill="none" stroke="#554400" stroke-width="1.65" d="M2974.819,779.52c-11.129,36.694-59.213,33.37-73.742,13.171
				c-10.599,21.623-44.596,23.76-58.074,1.375c-6.6,30.576-40.843,25.59-48.244,14.511c-7.503,27.7-46.92,26.513-53.978-12.464
				c2.127-0.436,4.924-1.234,8.718-1.785c1.912,9.419,8.564,26.633,24.709,23.597c11.286-2.123,12.278-10.692,14.899-29.163
				c1.423-0.22,2.489-0.374,4.266-0.557c4.074,9.088,8.256,16.8,13.692,18.505c16.281,5.109,31.617-3.083,28.501-34.089
				c2.424-0.466,4.449-0.856,5.99-1.153c11.585,32.89,32.047,33.05,43.578,25.588c11.282-7.3,9.348-15.51,12.28-31.241
				c5.937,10.388,6.854,18.942,14.276,25.189c11.615,9.774,40.623,12.267,51.184-6.472c4.567-8.105,2.993-20.025,2.934-24.169
				c5.721-0.731,12.727-0.793,18.206-0.062c-1.769,15.19,0.835,26.017,11.256,33.473c7.299,5.223,25.589,6.211,35.325,1.79
				c11.268-5.115,13.485-10.576,21.812-29.812c3.129,24.696,4.468,26.754,14.176,32.395c7.183,4.174,17.941,4.464,27.351-2.678
				c5.206-3.952,9.267-12.086,14.333-24.063c2.375,0.457,4.295,0.826,5.99,1.153c-2.798,18.839,3.73,33.917,16.702,35.308
				c15.561,1.669,19.67-4.597,28.623-26.911c2.872,29.794,5.45,37.427,21.345,37.405c8.995-0.013,18.726-14.615,19.379-24.034
				c2.641,0.541,5.412,1.108,8.718,1.785c-7.277,38.739-46.94,40.401-53.977,12.464c-7.991,11.198-41.002,15.947-48.244-14.511
				c-14.561,23.215-47.942,19.654-58.074-1.375C3037.182,810.396,2988.281,819.3,2974.819,779.52z"/>
		</g>
		<g transform="translate(-3.3042e-6)">
			<path fill="#D0B54E" d="M866.986,360.233c-6.095,0-29.35,0.6-51.725,3.394c-22.375,2.794-43.153,7.724-43.153,7.724
				s-4.089,4.543-3.617,6.807c0.505,2.422,6.455,5.129,6.455,5.129s20.297-4.8,41.837-7.49c21.539-2.689,45.001-3.335,50.203-3.335
				c1.808,0,32.663,0,34.464,0c5.011,0,28.053,0.644,49.647,3.335c21.594,2.692,42.451,7.49,42.451,7.49s5.445-2.489,5.992-4.709
				c0.568-2.308-3.242-7.228-3.242-7.228s-21.271-4.931-43.679-7.724c-22.408-2.793-45.237-3.394-51.169-3.394
				C899.647,360.233,868.792,360.233,866.986,360.233L866.986,360.233z"/>
			<path fill="#E6D289" d="M998.775,375.567c0,0-22.224-4.293-31.82-5.693c-10.608-1.548-24.828-3.068-35.504-4.02
				c-9.227-0.823-21.557-1.65-30.814-2.009c-8.033-0.312-18.758-0.525-26.795-0.335c-10.063,0.238-23.455,1.278-33.494,2.009
				c-7.041,0.513-16.431,1.215-23.445,2.009c-7.865,0.891-18.305,2.461-26.126,3.685c-6.447,1.009-21.436,3.685-21.436,3.685
				l2.462-3.225l8.069-1.729l16.716-3.458l11.528-1.441l13.547-2.306l19.021-1.441l21.039-0.864l19.31-0.576h23.344l35.738,2.306
				l21.615,2.594l24.497,4.612l9.8,2.017l2.749,4.183H998.775z"/>
			<path fill="#AF9631" d="M771.334,380.745c74.375-16.229,150.466-16.122,225.708,0.322l0.79-0.405l-4.099,2.635l-23.718-4.978
				l-20.79-2.928l-19.034-1.757l-23.132-1.171l-29.281-0.293l-25.768,0.586l-21.668,1.171l-23.425,3.221l-16.69,2.928l-14.934,3.514
				l-3.953-2.846H771.334z"/>
			<path fill="none" stroke="#554400" stroke-width="0.8259" d="M866.986,360.233c-6.095,0-29.35,0.6-51.725,3.394
				c-22.375,2.794-43.153,7.724-43.153,7.724s-4.089,4.543-3.617,6.807c0.505,2.422,6.455,5.129,6.455,5.129s20.297-4.8,41.837-7.49
				c21.539-2.689,45.001-3.335,50.203-3.335c1.808,0,32.663,0,34.464,0c5.011,0,28.053,0.644,49.647,3.335
				c21.594,2.692,42.451,7.49,42.451,7.49s5.445-2.489,5.992-4.709c0.568-2.308-3.242-7.228-3.242-7.228s-21.271-4.931-43.679-7.724
				c-22.408-2.793-45.237-3.394-51.169-3.394C899.647,360.233,868.792,360.233,866.986,360.233L866.986,360.233z"/>
		</g>
		<g transform="translate(4.4051e-6)">
			<path fill="#D0B54E" d="M868.09,398.561c-10.881,0-31.628,0.775-51.169,2.224c-19.722,1.462-37.448,4.447-37.448,4.447
				s-4.138,5.255-3.535,7.733c0.5,2.057,5.554,4.35,5.554,4.35s17.303-2.89,36.335-4.301c19.213-1.424,39.964-2.194,50.263-2.194
				c1.694,0,30.61,0,32.3,0c9.957,0,31.217,0.771,50.262,2.194c18.878,1.411,36.335,4.301,36.335,4.301s4.771-3.092,5.148-5.27
				c0.384-2.216-3.128-6.813-3.128-6.813s-17.884-2.985-37.448-4.447c-19.397-1.45-40.611-2.224-51.169-2.224
				C898.7,398.561,869.786,398.561,868.09,398.561L868.09,398.561z"/>
			<path fill="#E6D289" d="M777.335,408.531c71.775-8.751,142.077-8.509,213.856,0.367l0.068,0.338l-1.942-3.608l-8.603-1.665
				l-26.086-2.775l-38.574-2.22l-41.072-0.277l-30.249,0.277l-24.143,1.665l-28.861,2.775l-11.933,1.665l-2.462,3.457H777.335z"/>
			<path fill="#AF9631" d="M775.865,413.446c71.361-10.346,143.135-10.275,215.326,0l0.496-0.079l-4.331,3.712l-31.86-3.712
				l-29.386-2.165l-21.653-0.309l-43.306-0.309l-33.716,1.856l-32.788,2.784l-13.3,2.475L775.865,413.446L775.865,413.446z"/>
			<path fill="none" stroke="#554400" stroke-width="0.8259" d="M868.09,398.561c-10.881,0-31.628,0.775-51.169,2.224
				c-19.722,1.462-37.448,4.447-37.448,4.447s-4.138,5.255-3.535,7.733c0.5,2.057,5.554,4.35,5.554,4.35s17.303-2.89,36.335-4.301
				c19.213-1.424,39.964-2.194,50.263-2.194c1.694,0,30.61,0,32.3,0c9.957,0,31.217,0.771,50.262,2.194
				c18.878,1.411,36.335,4.301,36.335,4.301s4.771-3.092,5.148-5.27c0.384-2.216-3.128-6.813-3.128-6.813
				s-17.884-2.985-37.448-4.447c-19.397-1.45-40.611-2.224-51.169-2.224C898.7,398.561,869.786,398.561,868.09,398.561
				L868.09,398.561z"/>
		</g>
	</g>
	<g transform="translate(.78243)">
		<g transform="matrix(1.0148 0 0 1.0529 -202.55 -157.58)">
			<g transform="translate(0 .35898)">
				<path fill="#D0B54E" stroke="#554400" stroke-width="0.8259" d="M760.898,436.993c2.044,6.109,1.974,11.602-0.157,12.262
					c-2.132,0.66-4.382-4.116-6.427-10.225c-2.045-6.109-3.114-11.25-0.982-11.909C755.464,426.461,758.853,430.884,760.898,436.993
					L760.898,436.993z"/>
				<path fill="#BC0028" d="M758.21,437.816c1.475,4.406,2.485,8.039,0.148,8.761c-2.336,0.723-5.429-2.266-6.904-6.671
					c-1.474-4.405-0.775-8.567,1.561-9.29C755.352,429.893,756.736,433.411,758.21,437.816L758.21,437.816z"/>
				<path fill="#FF0A3E" d="M756.843,446.139c-0.469-0.849-1.54-1.696-2.055-2.52c-0.634-1.016-1.279-2.485-1.663-3.612
					c-0.379-1.112-0.762-2.643-0.871-3.808c-0.12-1.293-0.236-3.086,0.168-4.324c0.157-0.479,0.943-1.408,0.943-1.408l-1.82,1.049
					l-0.859,2.111l0.027,3.098l0.977,3.825l1.444,2.806l1.77,2.122l2.071,1.058C756.976,446.535,756.905,446.25,756.843,446.139
					L756.843,446.139z"/>
				<path fill="none" stroke="#A02C2C" stroke-width="0.4919" d="M758.21,437.816c1.475,4.406,2.485,8.039,0.148,8.761
					c-2.336,0.723-5.429-2.266-6.904-6.671c-1.474-4.405-0.775-8.567,1.561-9.29C755.352,429.893,756.736,433.411,758.21,437.816
					L758.21,437.816z"/>
			</g>
			<g transform="matrix(-1 0 0 1 1633.3 .35898)">
				<path fill="#D0B54E" stroke="#554400" stroke-width="0.8259" d="M673.91,436.993c2.045,6.109,1.974,11.602-0.157,12.262
					c-2.132,0.66-4.382-4.116-6.427-10.225c-2.045-6.109-3.114-11.25-0.982-11.909C668.475,426.461,671.864,430.884,673.91,436.993
					L673.91,436.993z"/>
				<path fill="#BC0028" d="M671.223,437.816c1.474,4.406,2.484,8.039,0.148,8.761c-2.336,0.723-5.429-2.266-6.903-6.671
					c-1.475-4.405-0.775-8.567,1.561-9.29C668.365,429.893,669.748,433.411,671.223,437.816L671.223,437.816z"/>
				<path fill="#FF0A3E" d="M669.856,446.139c-0.469-0.849-1.541-1.696-2.056-2.52c-0.635-1.016-1.28-2.485-1.664-3.612
					c-0.378-1.112-0.761-2.643-0.87-3.808c-0.12-1.293-0.237-3.086,0.169-4.324c0.157-0.479,0.942-1.408,0.942-1.408l-1.82,1.049
					l-0.859,2.111l0.027,3.098l0.976,3.825l1.445,2.806l1.771,2.122l2.071,1.058C669.989,446.535,669.917,446.25,669.856,446.139
					L669.856,446.139z"/>
				<path fill="none" stroke="#A02C2C" stroke-width="0.4919" d="M671.223,437.816c1.474,4.406,2.484,8.039,0.148,8.761
					c-2.336,0.723-5.429-2.266-6.903-6.671c-1.475-4.405-0.775-8.567,1.561-9.29C668.365,429.893,669.748,433.411,671.223,437.816
					L671.223,437.816z"/>
			</g>
		</g>
		<g transform="translate(126.13 -221)">
			<g transform="matrix(.475 0 0 .475 -818.7 109.58)">
				<g transform="translate(-.22785 -3.1851)">
					<ellipse fill="#DEC35D" stroke="#A0892C" stroke-width="1.2511" cx="2798" cy="846.385" rx="12.77" ry="12.77"/>
					<g transform="matrix(.89339 0 0 .87399 297.3 168.52)">
						<ellipse fill="#ECECEC" cx="2799.159" cy="775.578" rx="9.819" ry="9.98"/>
						<path fill="#CCCCCC" d="M2790.827,780.871l1.869,2.352l3.596,2.005l3.112,0.139l3.322-0.346l3.528-2.767l1.521-2.351
							l0.969-3.666v-3.805l-1.522-2.144l-2.214-2.559l-2.767-1.107c0,0,1.438,2.544,1.8,3.736c0.346,1.143,0.369,2.632,0.138,3.804
							c-0.222,1.131-0.801,2.558-1.522,3.459c-0.797,0.999-2.307,2.212-3.458,2.766c-1.286,0.619-2.933,0.787-4.357,0.83
							c-1.208,0.036-4.012-0.346-4.012-0.346H2790.827z"/>
						<path fill="#FFFFFF" d="M2800.958,770.83c0,2.884-2.417,5.223-5.396,5.223c-2.978,0-5.395-2.339-5.395-5.223
							c0-1.481,1.191-1.435,2.215-2.385c0.969-0.9,2.631-2.561,4.08-2.561C2799.44,765.884,2800.958,767.947,2800.958,770.83z"/>
						<ellipse fill="none" stroke="#808080" stroke-width="1.5136" cx="2799.159" cy="775.578" rx="9.819" ry="9.98"/>
					</g>
				</g>
				<g transform="translate(2.6104 27.817)">
					<ellipse fill="#DEC35D" stroke="#A0892C" stroke-width="1.2511" cx="2797.819" cy="844.406" rx="12.77" ry="12.77"/>
					<g transform="matrix(.89339 0 0 .87399 297.3 168.52)">
						<ellipse fill="#ECECEC" cx="2798.957" cy="773.315" rx="9.819" ry="9.979"/>
						<path fill="#CCCCCC" d="M2790.624,778.608l1.867,2.351l3.598,2.007l3.112,0.138l3.321-0.346l3.528-2.766l1.521-2.352
							l0.969-3.666v-3.805l-1.521-2.144l-2.214-2.559l-2.767-1.106c0,0,1.438,2.545,1.798,3.734
							c0.346,1.143,0.369,2.632,0.139,3.804c-0.223,1.133-0.803,2.558-1.522,3.459c-0.797,0.999-2.309,2.214-3.459,2.768
							c-1.285,0.619-2.934,0.788-4.359,0.83C2793.428,778.989,2790.624,778.608,2790.624,778.608L2790.624,778.608z"/>
						<path fill="#FFFFFF" d="M2800.755,768.566c0,2.884-2.417,5.223-5.395,5.223c-2.979,0-5.396-2.339-5.396-5.223
							c0-1.48,1.19-1.434,2.216-2.385c0.969-0.9,2.63-2.561,4.078-2.561C2799.239,763.62,2800.755,765.683,2800.755,768.566z"/>
						<ellipse fill="none" stroke="#808080" stroke-width="1.5136" cx="2798.957" cy="773.315" rx="9.819" ry="9.979"/>
					</g>
				</g>
			</g>
			<g transform="matrix(-.475 0 0 .475 1818.8 109.58)">
				<g transform="translate(-.22785 -3.1851)">
					
						<ellipse transform="matrix(1 -2.622604e-006 2.622604e-006 1 -0.0022 0.0068)" fill="#DEC35D" stroke="#A0892C" stroke-width="1.2511" cx="2612.158" cy="846.384" rx="12.77" ry="-12.77"/>
					<g transform="matrix(.89339 0 0 .87399 297.3 168.52)">
						
							<ellipse transform="matrix(1 -2.622604e-006 2.622604e-006 1 -0.002 0.0068)" fill="#ECECEC" cx="2591.137" cy="775.578" rx="9.821" ry="-9.98"/>
						<path fill="#CCCCCC" d="M2582.806,780.87l1.867,2.352l3.597,2.005l3.111,0.139l3.321-0.346l3.528-2.767l1.522-2.351
							l0.969-3.666v-3.805l-1.522-2.144l-2.213-2.559l-2.767-1.107c0,0,1.438,2.544,1.797,3.736
							c0.346,1.143,0.371,2.632,0.139,3.804c-0.222,1.131-0.802,2.558-1.522,3.459c-0.797,0.999-2.307,2.212-3.459,2.766
							c-1.285,0.619-2.931,0.787-4.356,0.83C2585.61,781.253,2582.806,780.87,2582.806,780.87L2582.806,780.87z"/>
						<path fill="#FFFFFF" d="M2592.938,770.829c0,2.884-2.419,5.223-5.398,5.223c-2.977,0-5.393-2.339-5.393-5.223
							c0-1.481,1.191-1.435,2.214-2.385c0.97-0.9,2.633-2.561,4.08-2.561C2591.419,765.884,2592.938,767.947,2592.938,770.829z"/>
						
							<ellipse transform="matrix(1 -2.622604e-006 2.622604e-006 1 -0.002 0.0068)" fill="none" stroke="#808080" stroke-width="1.5136" cx="2591.137" cy="775.578" rx="9.821" ry="-9.98"/>
					</g>
				</g>
				<g transform="translate(2.6104 27.817)">
					
						<ellipse transform="matrix(1 -2.622604e-006 2.622604e-006 1 -0.0022 0.0068)" fill="#DEC35D" stroke="#A0892C" stroke-width="1.2511" cx="2611.975" cy="844.406" rx="12.77" ry="-12.77"/>
					<g transform="matrix(.89339 0 0 .87399 297.3 168.52)">
						
							<ellipse transform="matrix(1 -2.622604e-006 2.622604e-006 1 -0.002 0.0068)" fill="#ECECEC" cx="2590.935" cy="773.314" rx="9.818" ry="-9.979"/>
						<path fill="#CCCCCC" d="M2582.603,778.608l1.867,2.351l3.597,2.007l3.113,0.138l3.322-0.346l3.528-2.766l1.521-2.352
							l0.968-3.666v-3.805l-1.522-2.144l-2.213-2.559l-2.769-1.106c0,0,1.439,2.545,1.801,3.734
							c0.346,1.143,0.369,2.632,0.138,3.804c-0.223,1.133-0.801,2.558-1.522,3.459c-0.798,0.999-2.308,2.214-3.458,2.768
							c-1.285,0.619-2.932,0.788-4.357,0.83C2585.408,778.989,2582.603,778.608,2582.603,778.608L2582.603,778.608z"/>
						<path fill="#FFFFFF" d="M2592.734,768.566c0,2.884-2.417,5.223-5.395,5.223c-2.977,0-5.395-2.339-5.395-5.223
							c0-1.48,1.191-1.434,2.215-2.385c0.968-0.9,2.63-2.561,4.08-2.561C2591.215,763.62,2592.734,765.683,2592.734,768.566z"/>
						
							<ellipse transform="matrix(1 -2.622604e-006 2.622604e-006 1 -0.002 0.0068)" fill="none" stroke="#808080" stroke-width="1.5136" cx="2590.935" cy="773.314" rx="9.818" ry="-9.979"/>
					</g>
				</g>
			</g>
		</g>
		<g transform="translate(126.01 -221)">
			<g transform="matrix(-.44424 -.079226 -.079226 .44424 1866 356.41)">
				<g transform="translate(-.22785 -3.1851)">
					
						<ellipse transform="matrix(0.9845 -0.1756 0.1756 0.9845 -105.1282 472.737)" fill="#DEC35D" stroke="#A0892C" stroke-width="1.2511" cx="2619.067" cy="830.491" rx="12.77" ry="-12.77"/>
					<g transform="matrix(.89339 0 0 .87399 297.3 168.52)">
						
							<ellipse transform="matrix(2.081791e-005 -1 1 2.081791e-005 1841.4269 3356.2507)" fill="#ECECEC" cx="2598.874" cy="757.393" rx="9.764" ry="-10.039"/>
						<path fill="#CCCCCC" d="M2590.54,762.686l1.869,2.352l3.597,2.006l3.112,0.137l3.321-0.345l3.528-2.767l1.524-2.351
							l0.966-3.667l0.002-3.804l-1.522-2.145l-2.215-2.559l-2.765-1.106c0,0,1.438,2.545,1.797,3.736
							c0.347,1.144,0.37,2.633,0.14,3.805c-0.223,1.131-0.803,2.558-1.522,3.459c-0.798,0.998-2.308,2.213-3.458,2.766
							c-1.285,0.618-2.934,0.787-4.359,0.83c-1.209,0.036-4.012-0.345-4.012-0.345L2590.54,762.686z"/>
						<path fill="#FFFFFF" d="M2600.672,752.645c0,2.882-2.416,5.223-5.396,5.223c-2.977,0.001-5.394-2.339-5.395-5.223
							c0-1.48,1.191-1.434,2.216-2.385c0.969-0.9,2.632-2.561,4.08-2.56C2599.155,747.699,2600.673,749.763,2600.672,752.645z"/>
						
							<ellipse transform="matrix(2.081791e-005 -1 1 2.081791e-005 1841.4269 3356.2507)" fill="none" stroke="#808080" stroke-width="1.5136" cx="2598.874" cy="757.393" rx="9.764" ry="-10.039"/>
					</g>
				</g>
				<g transform="translate(2.6104 27.817)">
					
						<ellipse transform="matrix(0.9838 -0.1793 0.1793 0.9838 -106.1279 483.1197)" fill="#DEC35D" stroke="#A0892C" stroke-width="1.2511" cx="2618.886" cy="828.513" rx="12.762" ry="-12.779"/>
					<g transform="matrix(.89339 0 0 .87399 297.3 168.52)">
						
							<ellipse transform="matrix(-0.0039 -1 1 -0.0039 1853.5859 3356.699)" fill="#ECECEC" cx="2598.671" cy="755.13" rx="9.756" ry="-10.045"/>
						<path fill="#CCCCCC" d="M2590.339,760.423l1.867,2.351l3.598,2.007l3.111,0.137l3.322-0.345l3.528-2.766l1.522-2.352
							l0.968-3.667l-0.001-3.803l-1.521-2.145l-2.215-2.559l-2.766-1.107c0,0,1.437,2.545,1.798,3.735
							c0.347,1.142,0.369,2.633,0.138,3.804c-0.223,1.131-0.802,2.558-1.522,3.459c-0.798,0.998-2.306,2.213-3.458,2.768
							c-1.285,0.617-2.932,0.787-4.357,0.829C2593.144,760.805,2590.339,760.423,2590.339,760.423L2590.339,760.423z"/>
						<path fill="#FFFFFF" d="M2600.469,750.381c0.002,2.883-2.415,5.223-5.396,5.223c-2.976,0.001-5.394-2.339-5.394-5.223
							c0.001-1.48,1.191-1.434,2.215-2.385c0.969-0.9,2.632-2.56,4.081-2.56C2598.951,745.437,2600.47,747.499,2600.469,750.381z"/>
						
							<ellipse transform="matrix(-0.0039 -1 1 -0.0039 1853.5859 3356.699)" fill="none" stroke="#808080" stroke-width="1.5136" cx="2598.671" cy="755.13" rx="9.756" ry="-10.045"/>
					</g>
				</g>
			</g>
			<g transform="matrix(.44424 -.079226 .079226 .44424 -865.64 356.41)">
				<g transform="translate(-.22785 -3.1851)">
					
						<ellipse transform="matrix(-0.9833 -0.1823 0.1823 -0.9833 5418.5928 2227.623)" fill="#DEC35D" stroke="#A0892C" stroke-width="1.2511" cx="2811.652" cy="864.837" rx="12.72" ry="12.82"/>
					<g transform="matrix(.89339 0 0 .87399 297.3 168.52)">
						
							<ellipse transform="matrix(-0.0067 1 -1 -0.0067 3629.9941 -2012.3407)" fill="#ECECEC" cx="2814.439" cy="796.69" rx="9.725" ry="10.078"/>
						<path fill="#CCCCCC" d="M2806.107,801.984l1.868,2.351l3.597,2.006l3.112,0.137l3.322-0.345l3.528-2.768l1.521-2.351
							l0.968-3.667l0.001-3.804l-1.522-2.145l-2.214-2.559l-2.766-1.107c0,0,1.436,2.544,1.798,3.736
							c0.346,1.143,0.37,2.633,0.138,3.804c-0.222,1.132-0.801,2.558-1.521,3.459c-0.798,0.998-2.309,2.213-3.459,2.766
							c-1.285,0.618-2.933,0.787-4.357,0.83c-1.208,0.036-4.012-0.345-4.012-0.345L2806.107,801.984z"/>
						<path fill="#FFFFFF" d="M2816.239,791.943c0,2.883-2.417,5.222-5.396,5.223c-2.979,0-5.394-2.339-5.395-5.223
							c0.001-1.48,1.191-1.434,2.216-2.385c0.969-0.9,2.631-2.561,4.079-2.56C2814.721,786.996,2816.238,789.06,2816.239,791.943z"
							/>
						
							<ellipse transform="matrix(-0.0067 1 -1 -0.0067 3629.9941 -2012.3407)" fill="none" stroke="#808080" stroke-width="1.5136" cx="2814.439" cy="796.69" rx="9.725" ry="10.078"/>
					</g>
				</g>
				<g transform="translate(2.6104 27.817)">
					
						<ellipse transform="matrix(-0.9825 -0.1862 0.1862 -0.9825 5413.166 2234.0188)" fill="#DEC35D" stroke="#A0892C" stroke-width="1.2511" cx="2811.471" cy="862.859" rx="12.711" ry="12.83"/>
					<g transform="matrix(.89339 0 0 .87399 297.3 168.52)">
						
							<ellipse transform="matrix(-0.0108 0.9999 -0.9999 -0.0108 3638.9963 -2011.0698)" fill="#ECECEC" cx="2814.237" cy="794.428" rx="9.717" ry="10.084"/>
						<path fill="#CCCCCC" d="M2805.903,799.72l1.87,2.352l3.597,2.006l3.113,0.138l3.319-0.346l3.528-2.766l1.521-2.352
							l0.968-3.667l0.002-3.803l-1.522-2.145l-2.215-2.559l-2.766-1.107c0,0,1.437,2.545,1.798,3.735
							c0.346,1.142,0.369,2.633,0.137,3.804c-0.222,1.132-0.801,2.558-1.52,3.459c-0.798,0.998-2.308,2.213-3.46,2.767
							c-1.284,0.617-2.931,0.787-4.356,0.83c-1.207,0.036-4.012-0.345-4.012-0.345L2805.903,799.72z"/>
						<path fill="#FFFFFF" d="M2816.036,789.679c0,2.882-2.417,5.222-5.396,5.223c-2.979,0-5.395-2.339-5.395-5.223
							c0-1.48,1.191-1.434,2.216-2.385c0.968-0.9,2.629-2.56,4.08-2.56C2814.518,784.734,2816.035,786.797,2816.036,789.679z"/>
						
							<ellipse transform="matrix(-0.0108 0.9999 -0.9999 -0.0108 3638.9963 -2011.0698)" fill="none" stroke="#808080" stroke-width="1.5136" cx="2814.237" cy="794.428" rx="9.717" ry="10.084"/>
					</g>
				</g>
			</g>
		</g>
		<g transform="translate(-4.3813e-6)">
			<path fill="#D0B54E" stroke="#554400" stroke-width="0.8259" d="M670.309,306.618l-22.189-11.956l22.189-11.311l22.188,11.311
				L670.309,306.618z"/>
			<path fill="#FF8080" d="M670.309,303.426l-16.087-8.668l16.087-8.201l16.086,8.201L670.309,303.426z"/>
			<path fill="#FF0A3E" d="M670.309,303.426v-16.869l16.086,8.2L670.309,303.426L670.309,303.426z"/>
			<path fill="#BC0028" d="M670.309,303.426l-16.087-8.668h32.172l-16.087,8.668H670.309z"/>
			<path fill="none" stroke="#FFD5D5" stroke-width="0.6353" d="M670.224,286.696l-0.072,16.781"/>
			<path fill="none" stroke="#FFD5D5" stroke-width="0.6353" d="M654.169,294.691l32.11,0.145"/>
			<path fill="none" stroke="#806600" stroke-width="0.8259" d="M670.309,303.426l-16.087-8.668l16.087-8.201l16.086,8.201
				L670.309,303.426z"/>
		</g>
		<g transform="translate(-.65716)">
			<g transform="matrix(.99984 -.017889 .017889 .99984 -7.5102 10.752)">
				<path fill="#D0B54E" stroke="#554400" stroke-width="0.8263" d="M599.599,288.642l13.319-1.221
					c5.546-0.508,10.666,3.551,11.438,9.066l0.146,1.05c0.772,5.516-3.1,10.399-8.646,10.908l-13.319,1.221
					c-5.545,0.508-10.667-3.551-11.438-9.066l-0.146-1.05C590.182,294.034,594.053,289.15,599.599,288.642z"/>
				<path fill="#115697" d="M600.407,291.45l12.504-1.146c4.259-0.39,8.191,2.727,8.783,6.962l0,0
					c0.592,4.235-2.38,7.985-6.639,8.375l-12.503,1.147c-4.259,0.39-8.191-2.727-8.783-6.962l0,0
					C593.176,295.591,596.148,291.841,600.407,291.45z"/>
				<path fill="#0569C8" d="M613.301,296.639c0.154,1.1-0.575,3.008-1.797,4.012c-2.094,1.72-5.63,2.303-8.648,2.58
					c-4.78,0.438-8.215-2.019-8.633-5.004c-0.249-1.786,0.555-4.163,2.555-5.344c1.344-0.793,3.436-1.264,5.357-1.441
					c3.215-0.295,7.555,0.025,9.795,1.687C613.02,293.939,613.166,295.662,613.301,296.639L613.301,296.639z"/>
				<path fill="none" stroke="#806600" stroke-width="0.8263" d="M600.407,291.45l12.504-1.146c4.259-0.39,8.191,2.727,8.783,6.962
					l0,0c0.592,4.235-2.38,7.985-6.639,8.375l-12.503,1.147c-4.259,0.39-8.191-2.727-8.783-6.962l0,0
					C593.176,295.591,596.148,291.841,600.407,291.45z"/>
				<path fill="#61B3FD" d="M601.94,294.259c2.256-0.207,4.258,0.862,4.471,2.387c0.213,1.525-1.443,2.929-3.699,3.135
					c-2.257,0.207-4.258-0.861-4.471-2.387C598.027,295.87,599.683,294.466,601.94,294.259z"/>
			</g>
			<g transform="matrix(-.99984 -.017889 -.017889 .99984 1261.2 10.752)">
				<path fill="#D0B54E" stroke="#554400" stroke-width="0.8263" d="M511.338,287.063l13.319-1.221
					c5.546-0.508,10.667,3.551,11.437,9.066l0.147,1.05c0.771,5.516-3.099,10.399-8.645,10.908l-13.32,1.221
					c-5.546,0.508-10.667-3.551-11.437-9.066l-0.147-1.05C501.921,292.454,505.792,287.571,511.338,287.063z"/>
				<path fill="#115697" d="M512.146,289.871l12.504-1.146c4.259-0.39,8.191,2.727,8.783,6.962l0,0
					c0.592,4.235-2.38,7.986-6.639,8.375l-12.504,1.147c-4.259,0.39-8.191-2.727-8.783-6.962l0,0
					C504.915,294.012,507.887,290.262,512.146,289.871z"/>
				<path fill="#0569C8" d="M525.041,295.06c0.154,1.1-0.576,3.008-1.798,4.012c-2.093,1.72-5.63,2.303-8.649,2.58
					c-4.78,0.438-8.215-2.019-8.632-5.004c-0.249-1.786,0.554-4.163,2.554-5.344c1.344-0.793,3.437-1.264,5.357-1.441
					c3.215-0.295,7.556,0.025,9.796,1.687C524.759,292.36,524.904,294.083,525.041,295.06L525.041,295.06z"/>
				<path fill="none" stroke="#806600" stroke-width="0.8263" d="M512.146,289.871l12.504-1.146c4.259-0.39,8.191,2.727,8.783,6.962
					l0,0c0.592,4.235-2.38,7.986-6.639,8.375l-12.504,1.147c-4.259,0.39-8.191-2.727-8.783-6.962l0,0
					C504.915,294.012,507.887,290.262,512.146,289.871z"/>
				<path fill="#61B3FD" d="M513.679,292.68c2.256-0.207,4.257,0.862,4.471,2.387c0.213,1.525-1.444,2.929-3.7,3.135
					c-2.256,0.207-4.258-0.861-4.471-2.387C509.766,294.291,511.422,292.887,513.679,292.68z"/>
			</g>
		</g>
	</g>
	<g transform="matrix(.91791 0 0 .91791 -607.2 8.757)">
		<g transform="matrix(.97623 -.21675 .21675 .97623 -27.047 265.24)">
			<path fill="#E6D289" stroke="#554400" stroke-width="0.901" d="M1257.136,302.135l12.022-2.371
				c1.236-0.244,2.361,0.573,2.512,1.823l0,0c0.152,1.251-0.728,2.462-1.964,2.706l-12.021,2.371
				c-1.235,0.244-2.361-0.572-2.512-1.823l0,0C1255.021,303.59,1255.9,302.379,1257.136,302.135z"/>
			<path fill="#E2CA73" d="M1256.4,293.051c0,0,1.767-1.446,2.692-1.659c0.854-0.197,2.905,0.292,2.905,0.292
				s0.01-2.107,0.955-2.895c0.624-0.517,1.772-0.141,2.512,0.191c1.99,0.894,2.638,3.293,5.216,4.673
				c2.144,1.148,4.884,3.383,6.2,1.336c1.208-1.878,0.364-3.828-0.984-6.009c-0.603-0.976-1.557-2.893-1.557-4.04
				c-0.001-1.146,0.354-2.216,0.793-3.276c0.932-2.247,0.065-7.922-0.763-10.21c-1.416-3.903-6.964-7.949-6.964-7.949
				s-1.501-1.835-1.94-2.894c-0.621-1.498,0.621-3.908,0-5.406c-0.439-1.06-1.369-2.048-2.512-2.13
				c-1.449-0.105-2.552,1.102-3.307,2.13c-0.626,0.853-1.221,2.449-1.525,3.461c-0.872,2.898-0.075,7.306-1.338,10.055
				c-0.478,1.042-2.13,2.704-2.13,2.704s-1.227-1.033-1.557-2.131c-1.412-4.7,1.723-11.685,2.13-16.602
				c0.201-2.424-0.057-6.612-1.336-8.683c-0.954-1.542-4.07-2.321-4.07-2.321s-2.105-0.254-4.117,0.6
				c-1.844,0.781-3.611,2.676-3.611,2.676s-3.247-0.976-4.643-0.764c-1.793,0.272-4.453,1.16-5.406,2.703
				c-0.426,0.69,0,2.703,0,2.703s6.702-1.122,9.095,0.191c2.564,1.407,4.282,5.411,5.407,8.11c0.771,1.852,1.567,5.888,1.719,7.888
				c0.176,2.315-0.509,4.856-0.191,7.155c0.784,5.659,2.665,12.638,5.5,17.283C1254.193,291.257,1256.4,293.052,1256.4,293.051
				L1256.4,293.051z"/>
			<path fill="#C2A944" d="M1256.212,290.29c0,0,1.566-1.282,2.386-1.471c0.757-0.174,1.888,0.259,1.888,0.259
				s0.691-1.868,1.533-2.565c0.553-0.459,2.085-0.64,2.741-0.345c1.764,0.792,2.166,2.232,4.451,3.455
				c1.901,1.018,3.985,4.199,5.151,2.386c1.071-1.664-0.707-2.707-1.902-4.64c-0.534-0.865-0.352-3.251-0.351-4.267
				c0-1.016,0.314-1.964,0.703-2.903c0.824-1.992,0.229-5.821-0.506-7.848c-1.255-3.459-7.373-7.902-7.373-7.902
				s-1.33-1.626-1.72-2.565c-0.549-1.328,0.551-3.464,0.001-4.792c-0.39-0.939-1.228-0.568-1.897,0.343
				c-0.555,0.756-1.083,2.171-1.353,3.069c-0.773,2.567,0.276,6.303-0.843,8.739c-0.249,0.54-0.983,1.246-1.977,2.878
				c-0.706,1.158-2.141,2.95-2.141,2.95s-4.176-4.003-4.469-4.977c-1.251-4.166,1.528-10.356,1.889-14.714
				c0.177-2.149,0.806-6.718-0.327-8.552c-0.845-1.367-1.719-2.057-1.719-2.057s-1.865-0.225-3.649,0.531
				c-1.634,0.693-3.201,2.372-3.201,2.372s-2.877-0.864-4.114-0.677c-1.589,0.241-3.947,1.029-4.792,2.396
				c-0.244,0.395,3.676-0.68,6.083-0.083c1.321,0.327,1.912,2.065,2.663,2.477c2.272,1.247,2.594,4.624,3.591,7.016
				c0.684,1.641,1.389,5.219,1.523,6.992c0.156,2.051-0.623,5.161-0.341,7.199c0.695,5.015,1.848,10.686,4.36,14.802
				C1253.055,288.7,1256.212,290.29,1256.212,290.29L1256.212,290.29z"/>
			<path fill="#A3861A" d="M1274.655,284.813l0.365-2.337l-7.011-18.551l-2.556-2.848c0,0,0.066,4.082-0.219,5.989
				c-0.173,1.152-0.93,2.572-1.096,3.725c-0.154,1.063-0.18,3.178,0,4.236c0.244,1.442,0.926,3.175,1.752,4.382
				c0.553,0.808,1.643,1.617,2.484,2.118c0.625,0.373,1.61,0.556,2.264,0.876C1271.901,283.02,1274.655,284.813,1274.655,284.813
				L1274.655,284.813z"/>
			<path fill="#A3861A" d="M1253.403,278.877c2.572-1.892,8.253-9.062,8.253-9.062s-2.733,4.664-1.942,5.987
				c1.447,2.415,8.253,0.162,8.253,0.162s-6.652,2.883-6.311,5.34c0.242,1.742,5.341,2.427,5.341,2.427l-14.726,1.133l-0.971-4.854
				C1251.3,280.01,1252.826,279.302,1253.403,278.877L1253.403,278.877z"/>
			<path fill="#E6D289" d="M1274.562,284.082l1.388-3.359l-0.658-6.5l-0.876-3.506l-3.141-4.674l-4.893-3.725
				c0,0,0.253,3.589,0.073,5.112c-0.145,1.235-0.885,2.781-1.022,4.017c-0.18,1.612-0.142,3.524,0.438,5.039
				c0.411,1.074,1.379,2.649,2.337,3.286c0.842,0.561,2.203,0.497,3.068,1.022C1272.467,281.521,1274.562,284.082,1274.562,284.082z
				"/>
			<path fill="#BA9A2E" d="M1274.094,272.267l-6.862,2.574l7.301-0.524L1274.094,272.267z"/>
			<path fill="none" stroke="#584B13" stroke-width="0.8998" d="M1256.4,293.051c0,0,1.767-1.446,2.692-1.659
				c0.854-0.197,2.905,0.292,2.905,0.292s0.01-2.107,0.955-2.895c0.624-0.517,1.772-0.141,2.512,0.191
				c1.99,0.894,2.638,3.293,5.216,4.673c2.144,1.148,4.884,3.383,6.2,1.336c1.208-1.878,0.364-3.828-0.984-6.009
				c-0.603-0.976-1.557-2.893-1.557-4.04c-0.001-1.146,0.354-2.216,0.793-3.276c0.932-2.247,0.065-7.922-0.763-10.21
				c-1.416-3.903-6.964-7.949-6.964-7.949s-1.501-1.835-1.94-2.894c-0.621-1.498,0.621-3.908,0-5.406
				c-0.439-1.06-1.369-2.048-2.512-2.13c-1.449-0.105-2.552,1.102-3.307,2.13c-0.626,0.853-1.221,2.449-1.525,3.461
				c-0.872,2.898-0.075,7.306-1.338,10.055c-0.478,1.042-2.13,2.704-2.13,2.704s-1.227-1.033-1.557-2.131
				c-1.412-4.7,1.723-11.685,2.13-16.602c0.201-2.424-0.057-6.612-1.336-8.683c-0.954-1.542-4.07-2.321-4.07-2.321
				s-2.105-0.254-4.117,0.6c-1.844,0.781-3.611,2.676-3.611,2.676s-3.247-0.976-4.643-0.764c-1.793,0.272-4.453,1.16-5.406,2.703
				c-0.426,0.69,0,2.703,0,2.703s6.702-1.122,9.095,0.191c2.564,1.407,4.282,5.411,5.407,8.11c0.771,1.852,1.567,5.888,1.719,7.888
				c0.176,2.315-0.509,4.856-0.191,7.155c0.784,5.659,2.665,12.638,5.5,17.283C1254.193,291.257,1256.4,293.052,1256.4,293.051
				L1256.4,293.051z"/>
			<path fill="#B19123" d="M1252.374,280.431l10.629-3.261l-9.783,5.556L1252.374,280.431z"/>
			<path fill="#E6D289" stroke="#5B4F0F" stroke-width="1.0539" d="M1252.566,271.571c-2.519-0.559-5.041-0.17-7.221,0.927
				c-2.524,1.798,1.302,23.095,8.272,21.278c3.562-1.312,6.444-4.433,7.341-8.471
				C1262.332,279.115,1258.568,272.904,1252.566,271.571L1252.566,271.571z"/>
			<g transform="matrix(.84274 0 0 .86483 -1070.1 -405.35)">
				
					<ellipse transform="matrix(-0.9795 -0.2013 0.2013 -0.9795 5288.3721 2129.907)" fill="#ECECEC" cx="2752.476" cy="796.079" rx="9.831" ry="9.97"/>
				<path fill="#CCCCCC" d="M2743.165,799.487l1.3,2.69l3.066,2.718l3.008,0.792l3.319,0.364l4.06-1.956l2.009-1.975l1.761-3.375
					l0.846-3.714l-1.009-2.415l-1.591-2.966l-2.455-1.665c0,0,0.838,2.788,0.925,4.027c0.083,1.189-0.226,2.647-0.712,3.743
					c-0.469,1.058-1.351,2.327-2.255,3.055c-1,0.806-2.744,1.673-3.992,1.97c-1.393,0.333-3.037,0.149-4.439-0.11
					C2745.818,800.452,2743.165,799.487,2743.165,799.487L2743.165,799.487z"/>
				<path fill="#FFFFFF" d="M2755.288,791.824c-0.641,2.814-3.521,4.588-6.428,3.959c-2.908-0.629-4.747-3.423-4.105-6.238
					c0.329-1.445,1.482-1.149,2.693-1.861c1.147-0.674,3.138-1.944,4.553-1.638C2754.908,786.675,2755.93,789.009,2755.288,791.824z
					"/>
				
					<ellipse transform="matrix(-0.9795 -0.2013 0.2013 -0.9795 5288.3721 2129.907)" fill="none" stroke="#808080" stroke-width="1.0539" cx="2752.476" cy="796.079" rx="9.831" ry="9.97"/>
			</g>
		</g>
		<g>
			<path fill="#E6D289" stroke="#554400" stroke-width="0.8998" d="M1311.287,272.051l14.8-2.475c1.4-0.234,2.728,0.71,2.967,2.109
				l0,0c0.238,1.4-0.702,2.723-2.102,2.957l-14.8,2.475c-1.4,0.234-2.728-0.71-2.967-2.109v-0.001
				C1308.946,273.608,1309.887,272.285,1311.287,272.051z"/>
			<path fill="#E2CA73" d="M1310.952,266.499c1.279-0.207,1.953-1.548,3.046-1.776c1.07-0.223,2.56,0.667,3.812,0.463
				c0.801-0.13,2.334-1.034,3.12-0.834c4.011,1.018,7.827,5.475,12.126,6.58c1.571,0.404,4.259,1.147,5.406,0
				c1.147-1.147,0.372-3.828,0-5.407c-0.416-1.765-1.74-3.042-1.868-4.85c-0.182-2.558,1.736-4.049,2.146-6.58
				c0.391-2.402,0.686-7.405-0.278-9.639c-0.485-1.126-1.696-3.233-2.732-4.049c-1.597-1.258-3.162-1.17-3.987-3.087
				c-1.2-2.789,2.198-8.021-0.278-10.118c-0.651-0.551-3.127-0.244-5.536,1.178c-1.878,1.109-3.717,3.004-4.619,4.988
				c-1.318,2.892-1.279,8.244-3.083,9.359c-0.689,0.427-2.703,0-2.703,0s5.323-17.573,4.409-24.995
				c-0.222-1.8-0.163-3.788-1.706-4.741c-1.38-0.852-3.908-0.621-5.407,0c-1.06,0.439-2.703,2.703-2.703,2.703
				s-1.773-2.033-2.703-2.703c-1.471-1.06-3.279-1.804-5.045-2.22c-1.578-0.373-3.854-0.47-5.406,0
				c-2.799,0.847-6.065,3.161-7.445,5.739c-0.765,1.43-0.665,5.074-0.665,5.074s-1.259-0.171-2.009,0.139
				c-1.06,0.438-2.264,1.644-2.702,2.703c-0.621,1.498-0.552,2.293,0.301,3.673c0.954,1.543,1.866,2.147,3.63,2.564
				c1.579,0.373,4.319,0.288,5.824,1.252c3.415,2.186,7.167,6.494,8.527,10.257c0.276,0.763,0,2.703,0,2.703
				s-1.21,0.708-1.869,0.278c-0.694-0.452-1.277-1.835-1.669-2.564c-1.632-3.029-4.375-4.568-7.553-5.885
				c-1.499-0.621-4.443-1.304-5.407,0c-1.435,1.942,4.232,7.163,4.232,8.31c0,1.147-1.35,1.86-1.59,2.982
				c-1.241,5.782-0.505,14.621,5.189,18.567c0.218,0.151,2.468,1.105,2.653,2.382c0.15,1.045,0.124,2.306-0.057,3.519
				c-0.276,1.852-0.731,3.594-0.031,4.295c1.147,1.146,3.908,0.621,5.407,0c1.059-0.439,2.1-1.728,2.703-2.703
				c1.349-2.182,0.901-5.498,2.982-6.997C1308.072,266.582,1310.151,266.63,1310.952,266.499L1310.952,266.499z"/>
			<path fill="#C2A944" d="M1311.044,263.55c1.115-0.18,1.701-1.348,2.653-1.546c0.932-0.194,2.229,0.58,3.319,0.403
				c0.698-0.113,2.033-0.9,2.718-0.726c3.493,0.887,9.011,5.297,12.755,6.259c1.368,0.352,2.346,0.999,3.345,0
				c0.998-0.998-1.114-3.787-1.439-5.162c-0.363-1.537-0.91-2.724-1.022-4.299c-0.158-2.228,1.512-3.526,1.87-5.73
				c0.339-2.092,0.596-6.449-0.242-8.394c-0.422-0.98-1.478-2.815-2.379-3.526c-1.391-1.096-2.753-1.019-3.471-2.688
				c-1.046-2.429,2.292-6.531,0.136-8.356c-0.567-0.48-0.678-0.59-2.776,0.647c-1.636,0.965-2.707,2.464-3.493,4.191
				c-1.147,2.519-1.643,9.45-3.214,10.421c-0.601,0.371-6.821-0.379-6.821-0.379s5.089-16.59,4.293-23.052
				c-0.193-1.568-0.142-3.299-1.485-4.129c-1.202-0.743-1.813-1.07-3.118-0.53c-0.922,0.382-2.354,2.354-2.354,2.354
				s-1.544-1.77-2.354-2.354c-1.28-0.923-3.171-1.991-4.707-2.353c-1.375-0.325-3.357-0.41-4.708,0
				c-2.437,0.738-5.281,2.752-6.483,4.998c-0.667,1.245-0.579,4.719-0.579,4.719s-3.126-0.528-4.15,0.243
				c-1.112,0.836-0.113,2.685,0.336,2.985c1.247,0.836,4.07,1.059,4.51,1.162c1.375,0.325,3.685,1.462,4.996,2.301
				c2.974,1.904,6.392,8.153,7.577,11.43c0.24,0.664,0,4.322,0,4.322s-4.171,0.649-4.895,0.239
				c-1.157-0.655-1.988-2.445-2.198-2.836c-1.421-2.637-4.188-4.432-6.956-5.579c-0.478-0.198-2.325-0.818-1.979,0.061
				c0.372,0.944,2.207,3.136,3.14,4.981c0.568,1.121,0.467,2.258,0.467,2.497c0,0.998-1.176,1.619-1.385,2.596
				c-1.08,5.035-0.44,12.731,4.519,16.168c0.19,0.131,3.21,0.962,3.369,2.074c0.131,0.91,0.337,3.446,0.179,4.503
				c-0.241,1.613-1.017,3.13-0.406,3.74c0.998,0.999,4.114-2.337,4.639-3.187c0.621-1.003,0.794-3.794,1.515-5.468
				c0.644-1.496,2.347-1.901,3.202-2.518c0.573-0.412,2.384-0.371,3.081-0.484H1311.044z"/>
			<path fill="#A3861A" d="M1307.019,212.902c0,0-1.357,0.884-1.799,1.408c-0.67,0.795-1.235,2.094-1.643,3.05
				c-0.329,0.771-0.259,2.029-0.5,2.832c-0.253,0.839-0.331,2.133-0.766,2.894c-0.469,0.821-1.631,2.041-2.347,2.659
				c-0.852,0.737-1.489,1.307-2.502,1.8c-0.682,0.331-2.059,0.679-2.817,0.704c-0.768,0.026-1.797-0.241-2.502-0.547
				c-0.681-0.296-1.559-0.838-2.034-1.409c-0.511-0.613-0.913-1.647-1.095-2.424c-0.155-0.663-0.455-2.52-0.455-2.52l9.073-8.291
				L1307.019,212.902L1307.019,212.902z"/>
			<path fill="#A3861A" d="M1305.615,253.449l-8.253-4.045c0,0,1.836,2.525,1.618,3.721c-0.412,2.263-5.34,5.503-5.34,5.503
				s5.136-0.621,6.472,0.809c1.163,1.243,0.324,5.664,0.324,5.664l6.958-5.826l11.813-1.942l10.842,4.045
				c0,0-5.475-3.813-5.016-6.149c0.585-2.984,8.899-4.854,8.899-4.854s-7.493,0.205-9.062-2.104
				c-1.104-1.624,0.971-6.473,0.971-6.473l-14.564,11.166l3.075-27.348c0,0-2.182,3.337-4.046,3.722
				c-4.724,0.977-14.887-7.768-14.887-7.768s8.314,6.945,6.635,9.386c-0.794,1.154-4.531-1.133-4.531-1.133s4.285,2.524,5.502,4.207
				c1.475,2.04,2.351,5.443,2.751,7.929C1306.326,245.362,1305.615,253.449,1305.615,253.449L1305.615,253.449z"/>
			<path fill="#E6D289" d="M1289.137,220.785c0,0,0.87,3.752,1.855,4.713c0.82,0.799,2.219,1.387,3.364,1.408
				c1.175,0.021,2.599-0.6,3.52-1.33c1.307-1.036,2.8-2.797,3.52-4.302c0.641-1.341,0.25-4.06,0.704-5.475
				c0.321-1.001,0.861-1.978,1.721-2.582c0.867-0.607,3.52-0.234,3.52-0.234l-3.207-1.878l-4.693-0.938l-3.598,1.017l-3.599,1.877
				l-2.346,2.737l-1.095,3.364L1289.137,220.785L1289.137,220.785z"/>
			<path fill="#A3861A" d="M1296.533,268.512c0,0,0.63-1.675,0.489-2.533c-0.164-0.997-1.421-2.48-1.458-3.49
				c-0.019-0.541,0.388-1.203,0.547-1.72c0.266-0.866,0.742-1.996,0.861-2.894c0.11-0.838,0.137-1.999-0.078-2.816
				c-0.217-0.822-0.824-1.819-1.33-2.503c-0.295-0.4-0.792-0.853-1.172-1.173c-0.439-0.368-1.226-0.634-1.564-1.095
				c-0.366-0.496-0.259-2.202-0.574-2.731c-0.131-0.221-0.446-1.268-0.739-1.67c-0.596-0.82-1.444-0.311-1.444-0.311l-0.419,6.901
				c0,0,1.342,8.852,3.176,12.123c0.803,1.434,3.707,3.911,3.707,3.911L1296.533,268.512z"/>
			<path fill="#A3861A" d="M1336.79,261.397l-0.86-18.617l-4.913-5.897c0,0,0.104,3.591-0.235,5.006
				c-0.314,1.306-1.685,2.692-2.034,3.989c-0.336,1.248-0.432,3.025-0.234,4.302c0.172,1.115,0.836,2.874,1.315,3.896
				c0.344,0.733,1.177,1.246,1.721,1.845c0.771,0.847,2.365,1.336,3.129,2.189C1335.462,258.989,1336.79,261.397,1336.79,261.397
				L1336.79,261.397z"/>
			<path fill="#E6D289" d="M1336.79,261.397v-2.659l1.955-4.224l0.47-5.554l-0.313-4.381l-2.112-3.207l-2.425-2.034l-2.737-2.346
				c0,0,0.829,2.89,0.704,4.146c-0.148,1.5-1.462,3.224-1.799,4.693c-0.247,1.079-0.509,2.335-0.469,3.442
				c0.043,1.21,0.642,3.305,1.33,4.302c0.644,0.935,1.802,1.156,2.737,1.799c0.549,0.378,1.376,0.837,1.721,1.408
				C1336.581,257.992,1336.79,261.397,1336.79,261.397L1336.79,261.397z"/>
			<path fill="#E6D289" d="M1295.971,267.885c0,0,0.24-1.632,0-2.268c-0.363-0.965-2.127-1.56-2.268-2.582
				c-0.17-1.237,1.31-2.238,1.643-3.442c0.334-1.204,0.847-3.061,0.391-4.224c-0.272-0.695-0.827-2.226-1.609-2.712
				c-1.099-0.682-2.338-0.526-2.693-1.512c-0.426-1.184,0.248-2.955-0.156-4.146c-0.262-0.77-1.173-1.877-1.173-1.877l-1.409,3.285
				l-0.782,6.337l1.095,5.71l2.973,4.381L1295.971,267.885L1295.971,267.885z"/>
			<path fill="#BA9A2E" d="M1295.784,211.395c0,0-1.799,2.731-2.197,4.057c-0.337,1.121-0.569,2.74-0.338,3.888
				c0.237,1.179,1.521,4.226,1.521,4.226s-2.082-3.186-2.536-4.564c-0.349-1.06,0.043-2.603,0-3.719
				c-0.026-0.661-0.169-2.197-0.169-2.197L1295.784,211.395z"/>
			<path fill="#BA9A2E" d="M1288.295,256.529l5.409-0.508l-4.902,2.536L1288.295,256.529L1288.295,256.529z"/>
			<path fill="#BA9A2E" d="M1338.85,247.542l-7.086,1.872l7.316,0.211L1338.85,247.542L1338.85,247.542z"/>
			<path fill="none" stroke="#5A4F11" stroke-width="0.8998" d="M1310.952,266.499c1.279-0.207,1.953-1.548,3.046-1.776
				c1.07-0.223,2.56,0.667,3.812,0.463c0.801-0.13,2.334-1.034,3.12-0.834c4.011,1.018,7.827,5.475,12.126,6.58
				c1.571,0.404,4.259,1.147,5.406,0c1.147-1.147,0.372-3.828,0-5.407c-0.416-1.765-1.74-3.042-1.868-4.85
				c-0.182-2.558,1.736-4.049,2.146-6.58c0.391-2.402,0.686-7.405-0.278-9.639c-0.485-1.126-1.696-3.233-2.732-4.049
				c-1.597-1.258-3.162-1.17-3.987-3.087c-1.2-2.789,2.198-8.021-0.278-10.118c-0.651-0.551-3.127-0.244-5.536,1.178
				c-1.878,1.109-3.717,3.004-4.619,4.988c-1.318,2.892-1.279,8.244-3.083,9.359c-0.689,0.427-2.703,0-2.703,0
				s5.323-17.573,4.409-24.995c-0.222-1.8-0.163-3.788-1.706-4.741c-1.38-0.852-3.908-0.621-5.407,0
				c-1.06,0.439-2.703,2.703-2.703,2.703s-1.773-2.033-2.703-2.703c-1.471-1.06-3.279-1.804-5.045-2.22
				c-1.578-0.373-3.854-0.47-5.406,0c-2.799,0.847-6.065,3.161-7.445,5.739c-0.765,1.43-0.665,5.074-0.665,5.074
				s-1.259-0.171-2.009,0.139c-1.06,0.438-2.264,1.644-2.702,2.703c-0.621,1.498-0.552,2.293,0.301,3.673
				c0.954,1.543,1.866,2.147,3.63,2.564c1.579,0.373,4.319,0.288,5.824,1.252c3.415,2.186,7.167,6.494,8.527,10.257
				c0.276,0.763,0,2.703,0,2.703s-1.21,0.708-1.869,0.278c-0.694-0.452-1.277-1.835-1.669-2.564
				c-1.632-3.029-4.375-4.568-7.553-5.885c-1.499-0.621-4.443-1.304-5.407,0c-1.435,1.942,4.232,7.163,4.232,8.31
				c0,1.147-1.35,1.86-1.59,2.982c-1.241,5.782-0.505,14.621,5.189,18.567c0.218,0.151,2.468,1.105,2.653,2.382
				c0.15,1.045,0.124,2.306-0.057,3.519c-0.276,1.852-0.731,3.594-0.031,4.295c1.147,1.146,3.908,0.621,5.407,0
				c1.059-0.439,2.1-1.728,2.703-2.703c1.349-2.182,0.901-5.498,2.982-6.997C1308.072,266.582,1310.151,266.63,1310.952,266.499
				L1310.952,266.499z"/>
			<path fill="#B19123" d="M1307.113,247.569c0,0,0.228-4.628,0-6.592c-0.306-2.639-0.307-6.089-1.522-8.452
				c-0.986-1.917-4.395-5.747-4.395-5.747s4.121,2.675,5.24,4.395c1.497,2.3,1.976,5.427,2.535,8.114
				c0.48,2.303,2.029,8.282,2.029,8.282H1307.113L1307.113,247.569z"/>
			<path fill="#B19123" d="M1297.657,257.034l12.058-3.967l18.875-1.443l-17.126,4.688L1297.657,257.034L1297.657,257.034z"/>
			<path fill="#E6D289" stroke="#5B4F0F" stroke-width="1.0539" d="M1310.874,242.533c-6.148,0-11.135,5.25-11.135,11.579
				c0,6.329,4.988,11.578,11.135,11.578c6.148,0,11.159-5.239,11.159-11.578C1322.033,247.772,1317.022,242.533,1310.874,242.533z"
				/>
			<g transform="matrix(.84274 0 0 .86483 -1010.3 -423.14)">
				
					<ellipse transform="matrix(-0.9998 0.0208 -0.0208 -0.9998 5522.5889 1508.7051)" fill="#ECECEC" cx="2753.43" cy="783.142" rx="9.841" ry="9.96"/>
				<path fill="#CCCCCC" d="M2745.098,788.434l1.868,2.352l3.597,2.006l3.113,0.138l3.32-0.346l3.529-2.767l1.521-2.352l0.969-3.666
					v-3.804l-1.522-2.144l-2.213-2.559l-2.767-1.107c0,0,1.438,2.545,1.799,3.735c0.347,1.143,0.369,2.633,0.138,3.804
					c-0.222,1.132-0.802,2.558-1.521,3.459c-0.797,0.998-2.307,2.214-3.459,2.767c-1.285,0.618-2.932,0.787-4.357,0.83
					C2747.903,788.816,2745.098,788.434,2745.098,788.434L2745.098,788.434z"/>
				<path fill="#FFFFFF" d="M2755.23,778.394c0,2.882-2.417,5.222-5.396,5.222c-2.977,0-5.395-2.339-5.395-5.222
					c0-1.481,1.191-1.435,2.214-2.386c0.97-0.9,2.632-2.56,4.081-2.56C2753.711,773.448,2755.23,775.511,2755.23,778.394z"/>
				
					<ellipse transform="matrix(-0.9998 0.0208 -0.0208 -0.9998 5522.5889 1508.7051)" fill="none" stroke="#808080" stroke-width="1.0539" cx="2753.43" cy="783.142" rx="9.841" ry="9.96"/>
			</g>
		</g>
		<g transform="translate(0,-2)">
			<path fill="#E6D289" stroke="#554400" stroke-width="0.8998" d="M1385.658,266.514h14.824c1.494,0,2.705,1.211,2.705,2.705l0,0
				c0,1.494-1.211,2.704-2.705,2.704h-14.824c-1.494,0-2.704-1.211-2.704-2.704l0,0
				C1382.953,267.725,1384.164,266.514,1385.658,266.514z"/>
			<path fill="#E2CA73" d="M1391.286,196.898c0,0,1.902-0.13,2.703,0c2.531,0.411,6.072,1.147,8.11,2.704
				c2.324,1.775,5.407,8.11,5.407,8.11s5.862-0.931,8.109,0c1.06,0.439,2.265,1.644,2.703,2.703c0.621,1.498,0.563,3.885,0,5.407
				c-2.594,7.012-16.219,18.922-16.219,18.922s3.876,0.537,5.407,0c4.9-1.719,8.616-9.094,13.516-10.813
				c1.531-0.537,4.26-1.147,5.408,0c1.146,1.147,0.372,3.828,0,5.406c-0.418,1.765-0.373,3.828,0,5.407
				c0.417,1.765,2.286,3.642,2.702,5.407c0.745,3.157,0.745,7.656,0,10.813c-0.833,3.529-4.573,7.283-5.406,10.813
				c-0.187,0.789-0.13,1.903,0,2.703c0.411,2.532,4.202,6.03,2.703,8.11c-1.423,1.974-5.743,0.559-8.11,0
				c-1.765-0.417-3.88-1.726-5.407-2.703c-2.564-1.64-6.693-7.712-9.731-10.272c-0.704-0.593-2.128-0.456-3.785-0.54
				c-1.679-0.086-4.172-1.455-6.674-1.455c-2.558-0.001-5.125,1.368-6.842,1.455c-1.655,0.085-3.081-0.052-3.784,0.54
				c-3.039,2.56-7.169,8.633-9.731,10.272c-1.528,0.978-3.642,2.286-5.407,2.703c-2.368,0.559-6.687,1.974-8.109,0
				c-1.5-2.08,2.292-5.578,2.703-8.11c0.13-0.8,0.187-1.914,0-2.703c-0.834-3.53-4.574-7.283-5.407-10.813
				c-0.745-3.158-0.745-7.656,0-10.813c0.417-1.765,2.287-3.642,2.703-5.407c0.372-1.578,0.417-3.642,0-5.407
				c-0.373-1.578-1.147-4.259,0-5.406c1.147-1.147,3.876-0.537,5.407,0c4.9,1.719,8.616,9.094,13.517,10.813
				c1.53,0.537,5.407,0,5.407,0s-13.626-11.91-16.22-18.922c-0.563-1.521-0.62-3.908,0-5.407c0.439-1.06,1.644-2.265,2.703-2.703
				c2.247-0.931,8.11,0,8.11,0s3.083-6.335,5.407-8.11C1385.215,198.045,1388.754,197.31,1391.286,196.898L1391.286,196.898z"/>
			<path fill="#BCA33E" d="M1391.286,200.981c0,0,1.717-0.117,2.439,0c2.284,0.371,5.479,1.035,7.318,2.44
				c2.096,1.601,3.222,6.986,3.222,6.986s5.951-0.509,7.98,0.331c0.956,0.396,2.043,1.483,2.439,2.439
				c0.56,1.352-0.341,2.318-0.848,3.69c-2.341,6.328-18.733,20.299-18.733,20.299s9.608,1.843,10.988,1.358
				c1.996-0.7,4.588-1.858,6.305-3.433c2.09-1.915,3.295-4.285,5.721-5.135c1.381-0.485,3.844-1.035,4.879,0
				c1.035,1.034,0.337,3.453,0,4.878c-0.376,1.592,0.512,2.944,0.849,4.369c0.376,1.593,2.232,3.795,2.609,5.388
				c0.672,2.849,0.672,1.987,0,4.835c-0.753,3.185-5.145,6.572-5.897,9.758c-0.168,0.712-0.118,1.717,0,2.439
				c0.371,2.284,2.603,6.458,1.251,8.336c-1.284,1.781-3.994-0.513-6.129-1.018c-1.593-0.376-10.749-11.944-13.49-14.254
				c-0.635-0.535-1.921-0.411-3.415-0.488c-3.065-0.156-9.13-0.156-12.195,0c-1.494,0.077-2.781-0.047-3.415,0.488
				c-2.742,2.31-12.237,13.878-13.83,14.254c-2.136,0.505-4.507,2.799-5.79,1.018c-1.353-1.877,0.541-6.051,0.912-8.336
				c0.118-0.722,0.168-1.727,0-2.439c-0.752-3.185-4.975-6.912-5.727-10.096c-0.672-2.849-0.672-1.986,0-4.835
				c0.376-1.592,1.215-3.286,1.591-4.879c0.336-1.423,2.073-2.946,1.697-4.539c-0.336-1.425-1.035-3.843,0-4.878
				c1.034-1.035,3.497-0.484,4.878,0c2.397,0.841,3.512,3.511,5.667,5.406c1.82,1.6,4.675,2.453,6.699,3.162
				c1.381,0.485,11.667-1.188,11.667-1.188s-17.071-13.801-19.411-20.128c-0.508-1.373-1.748-2.678-1.189-4.03
				c0.396-0.956,1.484-2.044,2.439-2.44c2.028-0.84,7.981,0,7.981,0s1.125-5.716,3.221-7.317
				C1385.808,202.015,1389.002,201.351,1391.286,200.981L1391.286,200.981z"/>
			<path fill="#A3861A" d="M1377.617,207.712c0,0,2.686-1.21,5.041-0.261c2.059,0.83,3.723,3.811,4.977,4.097
				c0.747,0.17,1.568,0.66,2.202,0.826c0.987,0.258,1.735,0.159,2.687,0.141c0.912-0.017,2.171,0.074,3.186-0.187
				c0.782-0.201,1.299-0.734,2.155-0.93c1.322-0.304,2.638-3.468,4.665-4.307c2.061-0.853,4.824,0.622,4.824,0.622l-2.704-5.407
				h-24.329L1377.617,207.712L1377.617,207.712z"/>
			<path fill="#E6D289" d="M1377.711,207.712c0,0,3.082-6.335,5.406-8.11c2.038-1.557,5.578-2.293,8.109-2.704
				c0.801-0.13,1.903-0.13,2.703,0c2.531,0.411,6.072,1.147,8.11,2.704c2.324,1.775,5.406,8.11,5.406,8.11s-3.616-2.994-5.406-2.703
				c-2.265,0.368-2.828,4.027-5.407,5.407c-2.145,1.148-5.965,1.148-8.11,0c-2.578-1.38-3.142-5.039-5.406-5.407
				C1381.327,204.718,1377.711,207.712,1377.711,207.712L1377.711,207.712z"/>
			<path fill="#BA9A2E" d="M1391.847,196.749l0.704,11.879l0.86-11.801L1391.847,196.749L1391.847,196.749z"/>
			<path fill="#A3861A" d="M1359.549,234.394c0,0,0.698,3.694,1.569,5.092c1.014,1.629,3.326,2.593,4.543,4.075
				c0.64,0.78,1.243,2.06,1.41,3.056c0.177,1.048-0.016,2.518-0.352,3.526c-0.367,1.096-1.247,2.414-1.998,3.291
				c-0.57,0.665-1.166,1.647-1.605,2.404c-0.791,1.364-1.569,4.648-1.569,4.648l-2.116-2.586l-2.233-19.98L1359.549,234.394
				L1359.549,234.394z"/>
			<path fill="#A3861A" d="M1425.457,234.225c0,0-0.908,3.8-1.779,5.197c-1.014,1.628-3.117,2.487-4.333,3.97
				c-0.641,0.78-1.244,2.06-1.411,3.056c-0.176,1.048,0.015,2.518,0.352,3.526c0.366,1.095,1.247,2.413,1.999,3.291
				c0.57,0.665,1.375,1.751,1.814,2.509c0.79,1.364,1.36,4.543,1.36,4.543l2.115-2.585l2.234-19.981L1425.457,234.225
				L1425.457,234.225z"/>
			<path fill="#A3861A" d="M1376.588,252.715c-3.246,1.954-8.77,8.352-8.77,8.352s2.434-4.956,1.117-7.788
				c-1.341-2.883-9.135-5.221-9.135-5.221s7.895-2.54,9.406-5.273c1.612-2.914-0.761-8.341-0.761-8.341s4.115,6.421,7.13,8.299
				c4.474,2.786,17.299,4.542,17.299,4.542s-11.93,2.807-16.287,5.429H1376.588z"/>
			<path fill="#E6D289" d="M1361.35,260.437c0,0-5.049-7.351-5.875-11.64c-0.307-1.593-0.026-4.978,0.235-6.579
				c0.41-2.532,2.859-6.624,2.859-6.624s-0.304,3.606,1.222,5.887c0.537,0.803,2.672,0.867,4.083,1.691
				c1.062,0.619,1.809,2.199,1.945,2.61c0.254,0.77,0.362,2.882,0.078,3.642c-0.41,1.096-0.84,2.004-1.91,2.929
				c-0.895,0.775-2.634,1.3-2.977,2.217C1360.157,256.848,1361.35,260.437,1361.35,260.437L1361.35,260.437z"/>
			<path fill="#E6D289" d="M1423.85,260.437c0,0,5.05-7.351,5.876-11.64c0.307-1.593,0.026-4.978-0.234-6.579
				c-0.411-2.532-2.86-6.624-2.86-6.624s0.199,3.396-1.326,5.677c-0.538,0.803-2.568,1.077-3.979,1.9
				c-1.061,0.619-1.809,2.199-1.945,2.61c-0.253,0.77-0.362,2.882-0.078,3.641c0.41,1.096,0.84,2.004,1.91,2.929
				c0.895,0.774,2.424,0.88,2.767,1.797C1424.835,256.428,1423.85,260.438,1423.85,260.437L1423.85,260.437z"/>
			<path fill="#BA9A2E" d="M1429.576,246.368l-8.001,0.704l7.948,0.859L1429.576,246.368L1429.576,246.368z"/>
			<path fill="#A3861A" d="M1405.797,252.977c3.245,1.953,8.769,8.352,8.769,8.352s-2.433-4.956-1.116-7.788
				c1.34-2.883,9.135-5.221,9.135-5.221s-7.895-2.54-9.407-5.273c-1.612-2.913,0.763-8.341,0.763-8.341s-4.116,6.422-7.131,8.299
				c-4.473,2.786-17.299,4.542-17.299,4.542s11.931,2.807,16.287,5.429H1405.797z"/>
			<path fill="#B19123" d="M1389.974,248.737l-22.028-1.656l21.863-2.485l0.167,4.141H1389.974z"/>
			<path fill="#B19123" d="M1395.272,248.57l22.028-1.656l-21.863-2.485L1395.272,248.57L1395.272,248.57z"/>
			<path fill="#BA9A2E" d="M1355.336,246.255l8,0.703l-7.948,0.86L1355.336,246.255L1355.336,246.255z"/>
			<path fill="none" stroke="#5A5013" stroke-width="0.8998" d="M1391.286,196.898c0,0,1.902-0.13,2.703,0
				c2.531,0.411,6.072,1.147,8.11,2.704c2.324,1.775,5.407,8.11,5.407,8.11s5.862-0.931,8.109,0c1.06,0.439,2.265,1.644,2.703,2.703
				c0.621,1.498,0.563,3.885,0,5.407c-2.594,7.012-16.219,18.922-16.219,18.922s3.876,0.537,5.407,0
				c4.9-1.719,8.616-9.094,13.516-10.813c1.531-0.537,4.26-1.147,5.408,0c1.146,1.147,0.372,3.828,0,5.406
				c-0.418,1.765-0.373,3.828,0,5.407c0.417,1.765,2.286,3.642,2.702,5.407c0.745,3.157,0.745,7.656,0,10.813
				c-0.833,3.529-4.573,7.283-5.406,10.813c-0.187,0.789-0.13,1.903,0,2.703c0.411,2.532,4.202,6.03,2.703,8.11
				c-1.423,1.974-5.743,0.559-8.11,0c-1.765-0.417-3.88-1.726-5.407-2.703c-2.564-1.64-6.693-7.712-9.731-10.272
				c-0.704-0.593-2.128-0.456-3.785-0.54c-1.679-0.086-4.172-1.455-6.674-1.455c-2.558-0.001-5.125,1.368-6.842,1.455
				c-1.655,0.085-3.081-0.052-3.784,0.54c-3.039,2.56-7.169,8.633-9.731,10.272c-1.528,0.978-3.642,2.286-5.407,2.703
				c-2.368,0.559-6.687,1.974-8.109,0c-1.5-2.08,2.292-5.578,2.703-8.11c0.13-0.8,0.187-1.914,0-2.703
				c-0.834-3.53-4.574-7.283-5.407-10.813c-0.745-3.158-0.745-7.656,0-10.813c0.417-1.765,2.287-3.642,2.703-5.407
				c0.372-1.578,0.417-3.642,0-5.407c-0.373-1.578-1.147-4.259,0-5.406c1.147-1.147,3.876-0.537,5.407,0
				c4.9,1.719,8.616,9.094,13.517,10.813c1.53,0.537,5.407,0,5.407,0s-13.626-11.91-16.22-18.922c-0.563-1.521-0.62-3.908,0-5.407
				c0.439-1.06,1.644-2.265,2.703-2.703c2.247-0.931,8.11,0,8.11,0s3.083-6.335,5.407-8.11
				C1385.215,198.045,1388.754,197.31,1391.286,196.898L1391.286,196.898z"/>
			<path fill="#A3861A" d="M1387.541,229.75c-1.953-3.245-8.352-8.77-8.352-8.77s4.956,2.433,7.788,1.117
				c2.883-1.341,5.221-9.135,5.221-9.135s2.54,7.895,5.272,9.406c2.915,1.612,8.342-0.762,8.342-0.762s-6.422,4.116-8.299,7.131
				c-2.787,4.474-4.542,17.299-4.542,17.299s-2.807-11.93-5.429-16.287V229.75z"/>
			<path fill="#B19123" d="M1390.537,237.361l1.656-22.029l2.484,21.863L1390.537,237.361L1390.537,237.361z"/>
			<path fill="#E6D289" stroke="#5B4F0F" stroke-width="1.0539" d="M1392.932,233.581c-6.312,0-11.433,5.393-11.433,11.884
				s5.121,11.884,11.433,11.884c6.31,0,11.457-5.382,11.457-11.884S1399.243,233.581,1392.932,233.581z"/>
			<g transform="matrix(.84274 0 0 .86483 -921.76 -432.55)">
				
					<ellipse transform="matrix(-0.9998 0.0203 -0.0203 -0.9998 5508.6143 1512.0007)" fill="#ECECEC" cx="2746.626" cy="783.984" rx="9.84" ry="9.959"/>
				<path fill="#CCCCCC" d="M2738.294,789.276l1.867,2.352l3.596,2.005l3.113,0.138l3.32-0.345l3.528-2.767l1.522-2.352l0.969-3.667
					v-3.805l-1.522-2.144l-2.214-2.559l-2.767-1.107c0,0,1.437,2.545,1.799,3.735c0.347,1.143,0.368,2.633,0.137,3.805
					c-0.222,1.131-0.802,2.557-1.521,3.459c-0.797,0.998-2.308,2.213-3.459,2.767c-1.284,0.619-2.932,0.787-4.357,0.83
					C2741.099,789.659,2738.294,789.276,2738.294,789.276L2738.294,789.276z"/>
				<path fill="#FFFFFF" d="M2748.426,779.235c0,2.884-2.418,5.223-5.396,5.223c-2.978,0-5.396-2.34-5.396-5.223
					c0-1.48,1.192-1.434,2.216-2.385c0.97-0.901,2.631-2.561,4.079-2.561C2746.908,774.289,2748.426,776.352,2748.426,779.235z"/>
				
					<ellipse transform="matrix(-0.9998 0.0203 -0.0203 -0.9998 5508.6143 1512.0007)" fill="none" stroke="#808080" stroke-width="1.0539" cx="2746.626" cy="783.984" rx="9.84" ry="9.959"/>
			</g>
		</g>
		<g>
			<path fill="#E6D289" stroke="#554400" stroke-width="0.8998" d="M1473.889,272.051l-14.8-2.475
				c-1.4-0.234-2.728,0.71-2.967,2.109l0,0c-0.239,1.4,0.702,2.723,2.101,2.957l14.8,2.475c1.4,0.234,2.729-0.71,2.968-2.109v-0.001
				C1476.23,273.608,1475.289,272.285,1473.889,272.051z"/>
			<path fill="#E2CA73" d="M1474.224,266.499c-1.278-0.207-1.953-1.548-3.045-1.776c-1.07-0.223-2.56,0.667-3.813,0.463
				c-0.799-0.13-2.333-1.034-3.12-0.834c-4.012,1.018-7.827,5.475-12.125,6.58c-1.572,0.404-4.26,1.147-5.408,0
				c-1.146-1.147-0.372-3.828,0-5.407c0.418-1.765,1.74-3.042,1.87-4.85c0.182-2.558-1.736-4.049-2.147-6.58
				c-0.39-2.402-0.685-7.405,0.278-9.639c0.485-1.126,1.696-3.233,2.733-4.049c1.596-1.258,3.161-1.17,3.987-3.087
				c1.2-2.789-2.198-8.021,0.278-10.118c0.651-0.551,3.126-0.244,5.536,1.178c1.878,1.109,3.717,3.004,4.62,4.988
				c1.318,2.892,1.278,8.244,3.083,9.359c0.69,0.427,2.703,0,2.703,0s-5.322-17.573-4.409-24.995c0.221-1.8,0.163-3.788,1.705-4.741
				c1.379-0.852,3.907-0.621,5.406,0c1.061,0.439,2.704,2.703,2.704,2.703s1.772-2.033,2.702-2.703
				c1.471-1.06,3.281-1.804,5.044-2.22c1.579-0.373,3.855-0.47,5.407,0c2.799,0.847,6.065,3.161,7.445,5.739
				c0.766,1.43,0.665,5.074,0.665,5.074s1.259-0.171,2.008,0.139c1.06,0.438,2.265,1.644,2.703,2.703
				c0.621,1.498,0.552,2.293-0.302,3.673c-0.953,1.543-1.865,2.147-3.63,2.564c-1.578,0.373-4.319,0.288-5.823,1.252
				c-3.415,2.186-7.167,6.494-8.527,10.257c-0.276,0.763,0,2.703,0,2.703s1.21,0.708,1.869,0.278
				c0.694-0.452,1.276-1.835,1.668-2.564c1.633-3.029,4.375-4.568,7.554-5.885c1.499-0.621,4.443-1.304,5.407,0
				c1.435,1.942-4.233,7.163-4.233,8.31c0,1.147,1.35,1.86,1.591,2.982c1.239,5.782,0.506,14.621-5.19,18.567
				c-0.217,0.151-2.469,1.105-2.652,2.382c-0.151,1.045-0.125,2.306,0.056,3.519c0.277,1.852,0.732,3.594,0.032,4.295
				c-1.146,1.146-3.908,0.621-5.407,0c-1.06-0.439-2.1-1.728-2.703-2.703c-1.348-2.182-0.901-5.498-2.981-6.997
				C1477.104,266.582,1475.025,266.63,1474.224,266.499L1474.224,266.499z"/>
			<path fill="#C2A944" d="M1474.131,263.55c-1.113-0.18-1.701-1.348-2.652-1.546c-0.932-0.194-2.229,0.58-3.319,0.403
				c-0.697-0.113-2.033-0.9-2.717-0.726c-3.494,0.887-9.012,5.297-12.756,6.259c-1.368,0.352-2.346,0.999-3.345,0
				c-0.998-0.998,1.114-3.787,1.439-5.162c0.362-1.537,0.909-2.724,1.021-4.299c0.158-2.228-1.512-3.526-1.869-5.73
				c-0.339-2.092-0.596-6.449,0.242-8.394c0.423-0.98,1.478-2.815,2.379-3.526c1.391-1.096,2.753-1.019,3.472-2.688
				c1.045-2.429-2.292-6.531-0.137-8.356c0.567-0.48,0.678-0.59,2.776,0.647c1.636,0.965,2.707,2.464,3.494,4.191
				c1.147,2.519,1.643,9.45,3.214,10.421c0.601,0.371,6.821-0.379,6.821-0.379s-5.089-16.59-4.293-23.052
				c0.193-1.568,0.141-3.299,1.485-4.129c1.202-0.743,1.813-1.07,3.118-0.53c0.922,0.382,2.354,2.354,2.354,2.354
				s1.544-1.77,2.353-2.354c1.281-0.923,3.172-1.991,4.708-2.353c1.375-0.325,3.356-0.41,4.709,0
				c2.436,0.738,5.281,2.752,6.482,4.998c0.666,1.245,0.578,4.719,0.578,4.719s3.127-0.528,4.15,0.243
				c1.112,0.836,0.112,2.685-0.336,2.985c-1.246,0.836-4.07,1.059-4.51,1.162c-1.374,0.325-3.685,1.462-4.995,2.301
				c-2.973,1.904-6.392,8.153-7.577,11.43c-0.239,0.664,0,4.322,0,4.322s4.171,0.649,4.895,0.239
				c1.157-0.655,1.988-2.445,2.199-2.836c1.421-2.637,4.188-4.432,6.956-5.579c0.479-0.198,2.325-0.818,1.979,0.061
				c-0.372,0.944-2.207,3.136-3.141,4.981c-0.566,1.121-0.466,2.258-0.466,2.497c0,0.998,1.175,1.619,1.385,2.596
				c1.079,5.035,0.439,12.731-4.519,16.168c-0.189,0.131-3.209,0.962-3.37,2.074c-0.13,0.91-0.336,3.446-0.178,4.503
				c0.241,1.613,1.015,3.13,0.406,3.74c-0.999,0.999-4.114-2.337-4.639-3.187c-0.62-1.003-0.792-3.794-1.513-5.468
				c-0.644-1.496-2.348-1.901-3.202-2.518C1476.638,263.622,1474.828,263.664,1474.131,263.55L1474.131,263.55z"/>
			<path fill="#A3861A" d="M1478.157,212.902c0,0,1.357,0.884,1.798,1.408c0.67,0.795,1.235,2.094,1.644,3.05
				c0.329,0.771,0.259,2.029,0.5,2.832c0.252,0.839,0.331,2.133,0.766,2.894c0.47,0.821,1.631,2.041,2.346,2.659
				c0.852,0.737,1.491,1.307,2.503,1.8c0.68,0.331,2.059,0.679,2.816,0.704c0.769,0.026,1.798-0.241,2.503-0.547
				c0.68-0.296,1.559-0.838,2.034-1.409c0.511-0.613,0.914-1.647,1.096-2.424c0.155-0.663,0.454-2.52,0.454-2.52l-9.074-8.291
				L1478.157,212.902L1478.157,212.902z"/>
			<path fill="#A3861A" d="M1479.562,253.449l8.252-4.045c0,0-1.836,2.525-1.618,3.721c0.412,2.263,5.34,5.503,5.34,5.503
				s-5.137-0.621-6.473,0.809c-1.162,1.243-0.324,5.664-0.324,5.664l-6.958-5.826l-11.813-1.942l-10.842,4.045
				c0,0,5.474-3.813,5.016-6.149c-0.585-2.984-8.9-4.854-8.9-4.854s7.494,0.205,9.062-2.104c1.103-1.624-0.971-6.473-0.971-6.473
				l14.564,11.166l-3.075-27.348c0,0,2.183,3.337,4.047,3.722c4.724,0.977,14.886-7.768,14.886-7.768s-8.313,6.945-6.634,9.386
				c0.795,1.154,4.531-1.133,4.531-1.133s-4.285,2.524-5.501,4.207c-1.476,2.04-2.35,5.443-2.751,7.929
				c-0.548,3.403,0.162,11.489,0.162,11.489H1479.562z"/>
			<path fill="#E6D289" d="M1496.039,220.785c0,0-0.87,3.752-1.855,4.713c-0.819,0.799-2.22,1.387-3.363,1.408
				c-1.176,0.021-2.599-0.6-3.52-1.33c-1.307-1.036-2.8-2.797-3.52-4.302c-0.641-1.341-0.249-4.06-0.704-5.475
				c-0.32-1.001-0.86-1.978-1.72-2.582c-0.867-0.607-3.52-0.234-3.52-0.234l3.208-1.878l4.692-0.938l3.599,1.017l3.598,1.877
				l2.346,2.737l1.096,3.364L1496.039,220.785L1496.039,220.785z"/>
			<path fill="#A3861A" d="M1488.642,268.512c0,0-0.63-1.675-0.489-2.533c0.164-0.997,1.422-2.48,1.459-3.49
				c0.02-0.541-0.389-1.203-0.548-1.72c-0.266-0.866-0.742-1.996-0.86-2.894c-0.109-0.838-0.137-1.999,0.078-2.816
				c0.218-0.822,0.825-1.819,1.33-2.503c0.296-0.4,0.793-0.853,1.174-1.173c0.438-0.368,1.224-0.634,1.564-1.095
				c0.365-0.496,0.259-2.202,0.574-2.731c0.131-0.221,0.446-1.268,0.739-1.67c0.597-0.82,1.444-0.311,1.444-0.311l0.419,6.901
				c0,0-1.342,8.852-3.176,12.123C1491.546,266.034,1488.642,268.512,1488.642,268.512L1488.642,268.512z"/>
			<path fill="#A3861A" d="M1448.385,261.397l0.86-18.617l4.914-5.897c0,0-0.105,3.591,0.235,5.006
				c0.314,1.306,1.685,2.692,2.034,3.989c0.336,1.248,0.431,3.025,0.235,4.302c-0.172,1.115-0.836,2.874-1.316,3.896
				c-0.343,0.733-1.175,1.246-1.72,1.845c-0.771,0.847-2.365,1.336-3.128,2.189C1449.713,258.989,1448.385,261.397,1448.385,261.397
				L1448.385,261.397z"/>
			<path fill="#E6D289" d="M1448.385,261.397v-2.659l-1.955-4.224l-0.469-5.554l0.313-4.381l2.112-3.207l2.425-2.034l2.737-2.346
				c0,0-0.828,2.89-0.704,4.146c0.148,1.5,1.462,3.224,1.8,4.693c0.247,1.079,0.508,2.335,0.469,3.442
				c-0.043,1.21-0.643,3.305-1.33,4.302c-0.645,0.935-1.802,1.156-2.737,1.799c-0.55,0.378-1.377,0.837-1.721,1.408
				C1448.595,257.992,1448.385,261.397,1448.385,261.397L1448.385,261.397z"/>
			<path fill="#E6D289" d="M1489.204,267.885c0,0-0.239-1.632,0-2.268c0.364-0.965,2.128-1.56,2.268-2.582
				c0.171-1.237-1.309-2.238-1.642-3.442c-0.334-1.204-0.846-3.061-0.391-4.224c0.273-0.695,0.827-2.226,1.609-2.712
				c1.099-0.682,2.338-0.526,2.694-1.512c0.426-1.184-0.25-2.955,0.156-4.146c0.262-0.77,1.173-1.877,1.173-1.877l1.408,3.285
				l0.782,6.337l-1.095,5.71l-2.972,4.381L1489.204,267.885L1489.204,267.885z"/>
			<path fill="#BA9A2E" d="M1489.391,211.395c0,0,1.8,2.731,2.198,4.057c0.337,1.121,0.568,2.74,0.338,3.888
				c-0.236,1.179-1.521,4.226-1.521,4.226s2.082-3.186,2.536-4.564c0.349-1.06-0.043-2.603,0-3.719
				c0.024-0.661,0.169-2.197,0.169-2.197L1489.391,211.395z"/>
			<path fill="#BA9A2E" d="M1496.881,256.529l-5.41-0.508l4.902,2.536L1496.881,256.529L1496.881,256.529z"/>
			<path fill="#BA9A2E" d="M1446.326,247.542l7.084,1.872l-7.316,0.211L1446.326,247.542L1446.326,247.542z"/>
			<path fill="none" stroke="#5A4F11" stroke-width="0.8998" d="M1474.224,266.499c-1.278-0.207-1.953-1.548-3.045-1.776
				c-1.07-0.223-2.56,0.667-3.813,0.463c-0.799-0.13-2.333-1.034-3.12-0.834c-4.012,1.018-7.827,5.475-12.125,6.58
				c-1.572,0.404-4.26,1.147-5.408,0c-1.146-1.147-0.372-3.828,0-5.407c0.418-1.765,1.74-3.042,1.87-4.85
				c0.182-2.558-1.736-4.049-2.147-6.58c-0.39-2.402-0.685-7.405,0.278-9.639c0.485-1.126,1.696-3.233,2.733-4.049
				c1.596-1.258,3.161-1.17,3.987-3.087c1.2-2.789-2.198-8.021,0.278-10.118c0.651-0.551,3.126-0.244,5.536,1.178
				c1.878,1.109,3.717,3.004,4.62,4.988c1.318,2.892,1.278,8.244,3.083,9.359c0.69,0.427,2.703,0,2.703,0
				s-5.322-17.573-4.409-24.995c0.221-1.8,0.163-3.788,1.705-4.741c1.379-0.852,3.907-0.621,5.406,0
				c1.061,0.439,2.704,2.703,2.704,2.703s1.772-2.033,2.702-2.703c1.471-1.06,3.281-1.804,5.044-2.22
				c1.579-0.373,3.855-0.47,5.407,0c2.799,0.847,6.065,3.161,7.445,5.739c0.766,1.43,0.665,5.074,0.665,5.074
				s1.259-0.171,2.008,0.139c1.06,0.438,2.265,1.644,2.703,2.703c0.621,1.498,0.552,2.293-0.302,3.673
				c-0.953,1.543-1.865,2.147-3.63,2.564c-1.578,0.373-4.319,0.288-5.823,1.252c-3.415,2.186-7.167,6.494-8.527,10.257
				c-0.276,0.763,0,2.703,0,2.703s1.21,0.708,1.869,0.278c0.694-0.452,1.276-1.835,1.668-2.564c1.633-3.029,4.375-4.568,7.554-5.885
				c1.499-0.621,4.443-1.304,5.407,0c1.435,1.942-4.233,7.163-4.233,8.31c0,1.147,1.35,1.86,1.591,2.982
				c1.239,5.782,0.506,14.621-5.19,18.567c-0.217,0.151-2.469,1.105-2.652,2.382c-0.151,1.045-0.125,2.306,0.056,3.519
				c0.277,1.852,0.732,3.594,0.032,4.295c-1.146,1.146-3.908,0.621-5.407,0c-1.06-0.439-2.1-1.728-2.703-2.703
				c-1.348-2.182-0.901-5.498-2.981-6.997C1477.104,266.582,1475.025,266.63,1474.224,266.499L1474.224,266.499z"/>
			<path fill="#B19123" d="M1478.063,247.569c0,0-0.229-4.628,0-6.592c0.306-2.639,0.306-6.089,1.521-8.452
				c0.986-1.917,4.395-5.747,4.395-5.747s-4.121,2.675-5.24,4.395c-1.497,2.3-1.976,5.427-2.536,8.114
				c-0.479,2.303-2.028,8.282-2.028,8.282H1478.063L1478.063,247.569z"/>
			<path fill="#B19123" d="M1487.519,257.034l-12.058-3.967l-18.875-1.443l17.127,4.688L1487.519,257.034L1487.519,257.034z"/>
			<path fill="#E6D289" stroke="#5B4F0F" stroke-width="1.0539" d="M1474.302,242.533c6.148,0,11.134,5.25,11.134,11.579
				c0,6.329-4.986,11.578-11.134,11.578c-6.149,0-11.16-5.239-11.16-11.578C1463.142,247.772,1468.154,242.533,1474.302,242.533z"/>
			<g transform="matrix(.84274 0 0 .86483 -1010.3 -423.14)">
				
					<ellipse transform="matrix(-0.9998 0.0198 -0.0198 -0.9998 5913.1895 1507.741)" fill="#ECECEC" cx="2949.131" cy="783.142" rx="9.841" ry="9.959"/>
				<path fill="#CCCCCC" d="M2957.463,788.434l-1.867,2.352l-3.597,2.006l-3.115,0.138l-3.319-0.346l-3.528-2.767l-1.521-2.352
					l-0.969-3.666v-3.804l1.522-2.144l2.214-2.559l2.767-1.107c0,0-1.439,2.545-1.799,3.735c-0.346,1.143-0.369,2.633-0.138,3.804
					c0.223,1.132,0.802,2.558,1.521,3.459c0.798,0.998,2.308,2.214,3.46,2.767c1.285,0.618,2.931,0.787,4.358,0.83
					C2954.658,788.816,2957.462,788.434,2957.463,788.434L2957.463,788.434z"/>
				<path fill="#FFFFFF" d="M2947.332,778.394c0,2.882,2.417,5.222,5.396,5.222c2.978,0,5.395-2.339,5.395-5.222
					c0-1.481-1.191-1.435-2.216-2.386c-0.969-0.9-2.632-2.56-4.08-2.56C2948.849,773.448,2947.332,775.511,2947.332,778.394z"/>
				
					<ellipse transform="matrix(-0.9998 0.0198 -0.0198 -0.9998 5913.1895 1507.741)" fill="none" stroke="#808080" stroke-width="1.0539" cx="2949.131" cy="783.142" rx="9.841" ry="9.959"/>
			</g>
		</g>
		<g transform="matrix(.97623 -.21675 .21675 .97623 -27.047 265.24)">
			<path fill="#E6D289" stroke="#554400" stroke-width="0.901" d="M1504.889,357.143l-9.889-7.236
				c-1.017-0.744-2.381-0.48-3.048,0.589l0,0c-0.666,1.069-0.382,2.539,0.634,3.283l9.889,7.235
				c1.017,0.744,2.381,0.481,3.047-0.589l0,0C1506.19,359.356,1505.906,357.887,1504.889,357.143z"/>
			<path fill="#E2CA73" d="M1509.4,349.224c0,0-0.989-2.058-1.737-2.642c-0.69-0.54-2.756-0.965-2.756-0.965s0.884-1.913,0.36-3.027
				c-0.347-0.733-1.546-0.878-2.356-0.89c-2.183-0.032-3.784,1.867-6.703,2.027c-2.43,0.132-5.857,0.998-6.184-1.413
				c-0.3-2.213,1.291-3.622,3.436-5.028c0.959-0.629,2.635-1.962,3.12-3.002c0.486-1.038,0.617-2.158,0.667-3.304
				c0.108-2.43,3.293-7.206,5.014-8.927c2.934-2.937,9.673-4.255,9.673-4.255s2.137-1.027,2.982-1.801
				c1.196-1.095,1.091-3.804,2.287-4.899c0.847-0.774,2.107-1.277,3.178-0.867c1.356,0.518,1.844,2.079,2.094,3.329
				c0.207,1.038,0.07,2.736-0.082,3.782c-0.436,2.994-3.024,6.651-3.044,9.676c-0.006,1.147,0.787,3.352,0.787,3.352
				s1.549-0.416,2.313-1.271c3.268-3.661,3.383-11.317,5.094-15.943c0.844-2.281,2.852-5.967,4.885-7.301
				c1.516-0.994,4.671-0.38,4.671-0.38s2.013,0.661,3.476,2.286c1.339,1.488,2.138,3.953,2.138,3.953s3.355,0.49,4.53,1.273
				c1.509,1.005,3.543,2.936,3.754,4.737c0.095,0.805-1.144,2.449-1.144,2.449s-5.598-3.853-8.321-3.676
				c-2.917,0.19-6.169,3.09-8.33,5.06c-1.483,1.351-3.912,4.671-4.896,6.42c-1.139,2.023-1.594,4.616-2.855,6.564
				c-3.105,4.795-7.763,10.323-12.297,13.331c-0.999,0.662-3.758,1.354-3.758,1.354L1509.4,349.224z"/>
			<path fill="#C2A944" d="M1510.738,346.801c0,0-0.877-1.824-1.539-2.342c-0.613-0.478-1.822-0.565-1.822-0.565
				s0.165-1.984-0.303-2.972c-0.307-0.65-1.618-1.463-2.337-1.473c-1.934-0.029-2.907,1.106-5.495,1.247
				c-2.153,0.117-5.388,2.118-5.677-0.019c-0.266-1.961,1.786-2.153,3.686-3.399c0.851-0.557,1.693-2.796,2.123-3.718
				c0.43-0.921,0.547-1.913,0.591-2.928c0.096-2.154,2.255-5.371,3.78-6.897c2.601-2.603,10.024-4.04,10.024-4.04
				s1.893-0.91,2.643-1.597c1.061-0.971,0.968-3.371,2.028-4.342c0.75-0.686,1.353,0.005,1.574,1.113
				c0.183,0.92,0.062,2.425-0.073,3.353c-0.386,2.653-2.919,5.594-2.935,8.274c-0.003,0.595,0.363,1.545,0.573,3.444
				c0.149,1.348,0.692,3.579,0.692,3.579s5.477-1.86,6.155-2.618c2.897-3.245,2.997-10.03,4.515-14.13
				c0.748-2.022,2.112-6.428,3.915-7.611c1.344-0.881,2.43-1.136,2.43-1.136s1.785,0.585,3.081,2.025
				c1.187,1.32,1.895,3.504,1.895,3.504s2.973,0.435,4.016,1.128c1.337,0.89,3.14,2.602,3.327,4.198
				c0.054,0.462-3.043-2.171-5.476-2.65c-1.335-0.263-2.606,1.062-3.462,1.117c-2.585,0.168-4.307,3.092-6.222,4.838
				c-1.314,1.197-3.466,4.141-4.339,5.69c-1.01,1.793-1.62,4.94-2.738,6.666c-2.75,4.25-6.196,8.9-10.214,11.567
				C1514.272,346.697,1510.738,346.802,1510.738,346.801L1510.738,346.801z"/>
			<path fill="#A3861A" d="M1496.346,334.034l0.658-2.272l14.204-13.841l3.521-1.499c0,0-1.788,3.67-2.336,5.519
				c-0.331,1.117-0.246,2.724-0.584,3.838c-0.312,1.028-1.182,2.955-1.793,3.838c-0.831,1.203-2.184,2.485-3.443,3.229
				c-0.843,0.498-2.172,0.769-3.146,0.868c-0.725,0.073-1.694-0.177-2.422-0.164
				C1499.601,333.576,1496.346,334.034,1496.346,334.034L1496.346,334.034z"/>
			<path fill="#A3861A" d="M1518.113,337.65c-1.529-2.803-3.642-11.703-3.642-11.703s0.503,5.383-0.774,6.246
				c-2.333,1.576-7.546-3.346-7.546-3.346s4.807,5.428,3.458,7.509c-0.956,1.476-5.865-0.061-5.865-0.061l12.863,7.258l2.934-3.987
				C1519.54,339.567,1518.456,338.279,1518.113,337.65L1518.113,337.65z"/>
			<path fill="#E6D289" d="M1496.74,333.412l0.164-3.631l3.346-5.611l2.277-2.806l4.823-2.906l6.009-1.304
				c0,0-1.748,3.145-2.229,4.601c-0.391,1.181-0.376,2.894-0.774,4.072c-0.518,1.537-1.362,3.254-2.529,4.381
				c-0.828,0.799-2.371,1.817-3.508,1.989c-1.001,0.152-2.206-0.482-3.211-0.372C1499.722,331.978,1496.74,333.412,1496.74,333.412z
				"/>
			<path fill="#BA9A2E" d="M1502.164,322.905l5.128,5.236l-6.393-3.564L1502.164,322.905z"/>
			<path fill="none" stroke="#584B13" stroke-width="0.8998" d="M1509.4,349.224c0,0-0.989-2.058-1.737-2.642
				c-0.69-0.54-2.756-0.965-2.756-0.965s0.884-1.913,0.36-3.027c-0.347-0.733-1.546-0.878-2.356-0.89
				c-2.183-0.032-3.784,1.867-6.703,2.027c-2.43,0.132-5.857,0.998-6.184-1.413c-0.3-2.213,1.291-3.622,3.436-5.028
				c0.959-0.629,2.635-1.962,3.12-3.002c0.486-1.038,0.617-2.158,0.667-3.304c0.108-2.43,3.293-7.206,5.014-8.927
				c2.934-2.937,9.673-4.255,9.673-4.255s2.137-1.027,2.982-1.801c1.196-1.095,1.091-3.804,2.287-4.899
				c0.847-0.774,2.107-1.277,3.178-0.867c1.356,0.518,1.844,2.079,2.094,3.329c0.207,1.038,0.07,2.736-0.082,3.782
				c-0.436,2.994-3.024,6.651-3.044,9.676c-0.006,1.147,0.787,3.352,0.787,3.352s1.549-0.416,2.313-1.271
				c3.268-3.661,3.383-11.317,5.094-15.943c0.844-2.281,2.852-5.967,4.885-7.301c1.516-0.994,4.671-0.38,4.671-0.38
				s2.013,0.661,3.476,2.286c1.339,1.488,2.138,3.953,2.138,3.953s3.355,0.49,4.53,1.273c1.509,1.005,3.543,2.936,3.754,4.737
				c0.095,0.805-1.144,2.449-1.144,2.449s-5.598-3.853-8.321-3.676c-2.917,0.19-6.169,3.09-8.33,5.06
				c-1.483,1.351-3.912,4.671-4.896,6.42c-1.139,2.023-1.594,4.616-2.855,6.564c-3.105,4.795-7.763,10.323-12.297,13.331
				c-0.999,0.662-3.758,1.354-3.758,1.354L1509.4,349.224z"/>
			<path fill="#B19123" d="M1518.389,339.494l-8.25-7.452l6.513,9.174L1518.389,339.494z"/>
			<path fill="#E6D289" stroke="#5B4F0F" stroke-width="1.0539" d="M1521.965,331.384c2.519,0.559,4.639,1.98,6.15,3.896
				c1.526,2.698-10.953,20.374-16.5,15.778c-2.672-2.696-3.964-6.744-3.067-10.782c1.374-6.188,7.414-10.224,13.415-8.891
				L1521.965,331.384z"/>
			<g transform="matrix(.84274 0 0 .86483 -1070.1 -405.35)">
				
					<ellipse transform="matrix(-0.9797 -0.2007 0.2007 -0.9797 5910.2598 2330.0752)" fill="#ECECEC" cx="3073.23" cy="865.476" rx="9.925" ry="9.874"/>
				<path fill="#CCCCCC" d="M3080.186,872.403l-2.347,1.901l-3.957,1.198l-3.069-0.522l-3.164-1.039l-2.829-3.446l-0.962-2.618
					l-0.13-3.784l0.846-3.714l1.962-1.772l2.73-2.031l2.948-0.496c0,0-1.969,2.181-2.586,3.267
					c-0.593,1.042-0.946,2.491-0.981,3.685c-0.035,1.152,0.214,2.665,0.716,3.698c0.556,1.143,1.761,2.647,2.761,3.431
					c1.116,0.875,2.687,1.388,4.069,1.731C3077.364,872.184,3080.186,872.403,3080.186,872.403L3080.186,872.403z"/>
				<path fill="#FFFFFF" d="M3072.529,860.46c-0.641,2.814,1.199,5.609,4.106,6.238c2.907,0.629,5.788-1.144,6.429-3.959
					c0.329-1.445-0.844-1.652-1.633-2.797c-0.746-1.083-1.999-3.055-3.413-3.361C3075.111,855.953,3073.17,857.646,3072.529,860.46z
					"/>
				
					<ellipse transform="matrix(-0.9797 -0.2007 0.2007 -0.9797 5910.2598 2330.0752)" fill="none" stroke="#808080" stroke-width="1.0539" cx="3073.23" cy="865.476" rx="9.925" ry="9.874"/>
			</g>
		</g>
		<g transform="matrix(.89339 0 0 .87399 297.3 168.52)">
			
				<ellipse transform="matrix(-0.9998 0.0215 -0.0215 -0.9998 2222.866 218.3004)" fill="#ECECEC" cx="1110.262" cy="121.077" rx="8.281" ry="8.22"/>
			<path fill="#CCCCCC" d="M1103.317,125.488l1.557,1.959l2.997,1.672l2.595,0.116l2.767-0.289l2.941-2.306l1.268-1.96l0.807-3.055
				v-3.17l-1.268-1.788l-1.845-2.133l-2.306-0.923c0,0,1.198,2.121,1.499,3.113c0.289,0.953,0.308,2.194,0.115,3.17
				c-0.186,0.943-0.669,2.132-1.269,2.883c-0.665,0.831-1.923,1.844-2.882,2.306c-1.071,0.516-2.444,0.656-3.631,0.692
				c-1.007,0.03-3.344-0.288-3.344-0.288H1103.317z"/>
			<path fill="#FFFFFF" d="M1111.761,117.12c0,2.402-2.015,4.352-4.497,4.352c-2.481,0-4.496-1.95-4.496-4.352
				c0-1.234,0.993-1.196,1.845-1.988c0.809-0.75,2.193-2.134,3.401-2.134C1110.496,112.997,1111.761,114.717,1111.761,117.12z"/>
			
				<ellipse transform="matrix(-0.9998 0.0215 -0.0215 -0.9998 2222.866 218.3004)" fill="none" stroke="#808080" stroke-width="1.2217" cx="1110.262" cy="121.077" rx="8.281" ry="8.22"/>
		</g>
		<g transform="matrix(.89339 0 0 .87399 297.3 168.52)">
			
				<ellipse transform="matrix(-0.9998 0.0219 -0.0219 -0.9998 2360.252 186.5577)" fill="#ECECEC" cx="1179.103" cy="106.223" rx="8.281" ry="8.221"/>
			<path fill="#CCCCCC" d="M1172.158,110.634l1.557,1.96l2.997,1.671l2.594,0.116l2.768-0.288l2.94-2.306l1.269-1.96l0.807-3.055
				V103.6l-1.269-1.787l-1.844-2.133l-2.306-0.923c0,0,1.199,2.122,1.499,3.113c0.289,0.953,0.307,2.195,0.115,3.171
				c-0.185,0.943-0.668,2.131-1.268,2.883c-0.664,0.832-1.923,1.844-2.882,2.306c-1.071,0.516-2.444,0.656-3.632,0.692
				C1174.496,110.952,1172.159,110.634,1172.158,110.634L1172.158,110.634z"/>
			<path fill="#FFFFFF" d="M1180.602,102.266c0,2.403-2.015,4.353-4.497,4.353c-2.482,0-4.497-1.95-4.497-4.353
				c0-1.234,0.993-1.195,1.846-1.987c0.809-0.75,2.193-2.134,3.401-2.134C1179.337,98.145,1180.602,99.863,1180.602,102.266z"/>
			
				<ellipse transform="matrix(-0.9998 0.0219 -0.0219 -0.9998 2360.252 186.5577)" fill="none" stroke="#808080" stroke-width="1.2217" cx="1179.103" cy="106.223" rx="8.281" ry="8.221"/>
		</g>
		<g transform="matrix(.89339 0 0 .87399 297.3 168.52)">
			
				<ellipse transform="matrix(-0.9997 0.0224 -0.0224 -0.9997 2547.9517 183.8788)" fill="#ECECEC" cx="1272.945" cy="106.223" rx="8.28" ry="8.221"/>
			<path fill="#CCCCCC" d="M1266.001,110.634l1.557,1.96l2.997,1.671l2.594,0.116l2.767-0.288l2.94-2.306l1.268-1.96l0.807-3.055
				V103.6l-1.268-1.787l-1.844-2.133l-2.306-0.923c0,0,1.197,2.122,1.499,3.113c0.288,0.953,0.307,2.195,0.114,3.171
				c-0.185,0.943-0.667,2.131-1.268,2.883c-0.665,0.832-1.923,1.844-2.882,2.306c-1.072,0.516-2.445,0.656-3.633,0.692
				C1268.338,110.952,1266.001,110.634,1266.001,110.634L1266.001,110.634z"/>
			<path fill="#FFFFFF" d="M1274.444,102.266c0,2.403-2.015,4.353-4.497,4.353c-2.482,0-4.497-1.95-4.497-4.353
				c0-1.234,0.993-1.195,1.846-1.987c0.808-0.75,2.194-2.134,3.4-2.134C1273.18,98.145,1274.444,99.863,1274.444,102.266z"/>
			
				<ellipse transform="matrix(-0.9997 0.0224 -0.0224 -0.9997 2547.9517 183.8788)" fill="none" stroke="#808080" stroke-width="1.2217" cx="1272.945" cy="106.223" rx="8.28" ry="8.221"/>
		</g>
		<g transform="matrix(.89339 0 0 .87399 297.3 168.52)">
			
				<ellipse transform="matrix(-0.9997 0.0229 -0.0229 -0.9997 2685.9937 211.3688)" fill="#ECECEC" cx="1341.786" cy="121.076" rx="8.279" ry="8.22"/>
			<path fill="#CCCCCC" d="M1334.842,125.488l1.556,1.959l2.998,1.672l2.595,0.116l2.767-0.289l2.94-2.306l1.268-1.96l0.806-3.055
				v-3.17l-1.267-1.788l-1.845-2.133l-2.306-0.923c0,0,1.199,2.121,1.499,3.113c0.288,0.953,0.307,2.194,0.114,3.17
				c-0.185,0.943-0.667,2.132-1.267,2.883c-0.664,0.831-1.923,1.844-2.883,2.306c-1.071,0.516-2.443,0.656-3.631,0.692
				C1337.179,125.806,1334.842,125.488,1334.842,125.488L1334.842,125.488z"/>
			<path fill="#FFFFFF" d="M1343.285,117.12c0,2.402-2.015,4.352-4.497,4.352c-2.482,0-4.497-1.95-4.497-4.352
				c0-1.234,0.992-1.196,1.846-1.988c0.809-0.75,2.193-2.134,3.401-2.134C1342.021,112.997,1343.285,114.717,1343.285,117.12z"/>
			
				<ellipse transform="matrix(-0.9997 0.0229 -0.0229 -0.9997 2685.9937 211.3688)" fill="none" stroke="#808080" stroke-width="1.2217" cx="1341.786" cy="121.076" rx="8.279" ry="8.22"/>
		</g>
	</g>
</g>
</svg>
